<svg class="routes-advantages-item__decor" width="390" height="156" viewBox="0 0 390 156" fill="none" xmlns="http://www.w3.org/2000/svg">
	<path fill-rule="evenodd" clip-rule="evenodd" d="M22.8456 22.8456C37.4735 8.21782 57.3131 0 77.9999 0V77.9999L77.9999 156C57.313 156 37.4735 147.782 22.8456 133.154C8.21782 118.526 0 98.6868 0 77.9999C0 57.313 8.21783 37.4735 22.8456 22.8456ZM156 156C199.078 156 234 121.078 234 78.0002C234 34.922 199.078 0.000244438 156 0.000244438C112.922 0.000244438 77.9999 34.922 77.9999 78.0002C77.9999 121.078 112.922 156 156 156ZM312 0.000553577C291.313 0.00055333 271.473 8.21838 256.845 22.8462C242.218 37.474 234 57.3136 234 78.0005C234 98.6873 242.218 118.527 256.845 133.155C271.473 147.783 291.313 156 312 156V78.0005V0.000553577ZM334.846 22.8462C349.473 8.21837 369.313 0.00054907 390 0.000549316V78.0005V156C369.313 156 349.473 147.783 334.846 133.155C320.218 118.527 312 98.6873 312 78.0005C312 57.3136 320.218 37.474 334.846 22.8462Z" fill="white" fill-opacity="0.4"></path>
</svg>