<svg width="26" height="26" viewBox="0 0 26 26" fill="none" xmlns="http://www.w3.org/2000/svg">
<path d="M23.9688 0H2.03125C0.908984 0 0 0.908984 0 2.03125V23.9688C0 25.091 0.908984 26 2.03125 26H23.9688C25.091 26 26 25.091 26 23.9688V2.03125C26 0.908984 25.091 0 23.9688 0ZM9.18125 14.6352C9.18125 15.0516 8.84101 15.3918 8.42461 15.3918C8.0082 15.3918 7.66797 15.0516 7.66797 14.6352V11.4055C7.66797 10.9891 8.0082 10.6488 8.42461 10.6488C8.84101 10.6488 9.18125 10.9891 9.18125 11.4055V14.6352ZM16.7324 11.2785V11.7914V16.1891C16.7324 16.6309 16.377 16.9863 15.9352 16.9863H15.3613C15.3816 17.0523 15.3918 17.1234 15.3918 17.1945V17.2352V17.4891V18.7891C15.3918 19.2055 15.0516 19.5457 14.6352 19.5457C14.2188 19.5457 13.8785 19.2055 13.8785 18.7891V17.4891V17.2352V17.1945C13.8785 17.1234 13.8887 17.0523 13.909 16.9863H12.5074C12.5277 17.0523 12.5379 17.1234 12.5379 17.1945V17.2352V17.4891V18.7891C12.5379 19.2055 12.1977 19.5457 11.7812 19.5457C11.3648 19.5457 11.0246 19.2055 11.0246 18.7891V17.4891V17.2352V17.1945C11.0246 17.1234 11.0348 17.0523 11.0551 16.9863H10.4812C10.0395 16.9863 9.68398 16.6309 9.68398 16.1891V11.7914V11.2785V10.6488H9.73984H16.6766H16.7324V11.2785ZM9.68398 10.1512C9.68398 9.07461 10.4051 8.13008 11.4766 7.63242L11.3344 7.41914L11.1922 7.21094L10.8773 6.73867C10.8418 6.68281 10.857 6.60156 10.9129 6.56602C10.9688 6.52539 11.05 6.5457 11.0855 6.60156L11.4207 7.1043L11.5629 7.31758L11.7051 7.53086C12.1621 7.35313 12.6648 7.25664 13.2031 7.25664C13.7363 7.25664 14.2441 7.35313 14.7012 7.53086L14.8434 7.31758L14.9855 7.1043L15.3207 6.60156C15.3563 6.5457 15.4375 6.52539 15.4934 6.56602C15.5492 6.60664 15.5695 6.68281 15.5289 6.73867L15.2141 7.21094L15.082 7.41914L14.9398 7.63242C16.0063 8.13008 16.7273 9.06953 16.7273 10.1512H9.68398ZM18.7434 14.6352C18.7434 15.0516 18.4031 15.3918 17.9867 15.3918C17.5703 15.3918 17.2301 15.0516 17.2301 14.6352V11.4055C17.2301 10.9891 17.5703 10.6488 17.9867 10.6488C18.4031 10.6488 18.7434 10.9891 18.7434 11.4055V14.6352Z" fill="#B0EC4F"/>
</svg>
