<svg width="26" height="26" viewBox="0 0 26 26" fill="none" xmlns="http://www.w3.org/2000/svg">
<g clip-path="url(#clip0_282_627)">
<path d="M23.9688 0H2.03125C0.908984 0 0 0.908984 0 2.03125V23.9688C0 25.091 0.908984 26 2.03125 26H23.9688C25.091 26 26 25.091 26 23.9688V2.03125C26 0.908984 25.091 0 23.9688 0ZM13.4621 7.21602C13.9395 6.63711 14.752 6.19531 15.4477 6.14453C15.5645 6.93672 15.2395 7.70859 14.8129 8.25703C14.3559 8.84609 13.5687 9.29805 12.807 9.27266C12.675 8.51602 13.0305 7.73906 13.4621 7.21602ZM17.743 17.2605C17.1945 18.0934 16.4227 19.1344 15.4629 19.1445C14.6098 19.1547 14.3914 18.591 13.2387 18.5961C12.0859 18.6012 11.8422 19.1547 10.9891 19.1445C10.0293 19.1344 9.29805 18.1949 8.74961 17.3621C7.21602 15.0262 7.05352 12.2891 8.00313 10.8316C8.67344 9.7957 9.73477 9.19141 10.7352 9.19141C11.7508 9.19141 12.3855 9.75 13.2285 9.75C14.041 9.75 14.5387 9.19141 15.7117 9.19141C16.6004 9.19141 17.5398 9.67383 18.2102 10.5117C16.0164 11.7152 16.3719 14.8484 18.591 15.6863C18.2812 16.3566 18.134 16.6613 17.743 17.2605Z" fill="#B0EC4F"/>
</g>
<defs>
<clipPath id="clip0_282_627">
<rect width="26" height="26" fill="white"/>
</clipPath>
</defs>
</svg>
