<svg xmlns="http://www.w3.org/2000/svg" width="28" height="28" viewBox="0 0 28 28" fill="none"><path d="M12.9867 0.591678C13.4276 -0.197226 14.5724 -0.197226 15.0133 0.591678C15.385 1.25681 16.2951 1.38644 16.8409 0.851987C17.4882 0.218088 18.5867 0.537635 18.7854 1.41763C18.9529 2.15957 19.7892 2.53794 20.4649 2.17747C21.2663 1.74993 22.2294 2.36314 22.1698 3.26293C22.1195 4.02156 22.8143 4.61802 23.5651 4.46074C24.4557 4.2742 25.2054 5.13139 24.8923 5.97809C24.6283 6.69195 25.1254 7.45818 25.8905 7.51683C26.798 7.5864 27.2736 8.61812 26.7324 9.34313C26.2761 9.95439 26.5351 10.8283 27.2526 11.0981C28.1035 11.4182 28.2665 12.5409 27.541 13.0854C26.9293 13.5446 26.9293 14.4554 27.541 14.9146C28.2665 15.4591 28.1035 16.5818 27.2526 16.9019C26.5351 17.1717 26.2761 18.0456 26.7324 18.6569C27.2736 19.3819 26.798 20.4136 25.8905 20.4832C25.1254 20.5418 24.6283 21.3081 24.8923 22.0219C25.2054 22.8686 24.4557 23.7258 23.5651 23.5393C22.8143 23.382 22.1195 23.9784 22.1698 24.7371C22.2294 25.6369 21.2663 26.2501 20.4649 25.8225C19.7892 25.4621 18.9529 25.8404 18.7854 26.5824C18.5867 27.4624 17.4882 27.7819 16.8409 27.148C16.2951 26.6136 15.385 26.7432 15.0133 27.4083C14.5725 28.1972 13.4275 28.1972 12.9867 27.4083C12.615 26.7432 11.7049 26.6136 11.1591 27.148C10.5118 27.7819 9.41326 27.4624 9.21461 26.5824C9.04712 25.8404 8.2108 25.4621 7.53513 25.8225C6.73372 26.2501 5.77056 25.6369 5.83021 24.7371C5.8805 23.9784 5.18567 23.382 4.43485 23.5393C3.54432 23.7258 2.79457 22.8686 3.10769 22.0219C3.37168 21.3081 2.87462 20.5418 2.10949 20.4832C1.20198 20.4136 0.726367 19.3819 1.26759 18.6569C1.72391 18.0456 1.46488 17.1717 0.747422 16.9019C-0.103545 16.5818 -0.266482 15.4591 0.459001 14.9146C1.07067 14.4554 1.07067 13.5446 0.459002 13.0854C-0.266482 12.5409 -0.103545 11.4182 0.747422 11.0981C1.46488 10.8283 1.72391 9.9544 1.26759 9.34313C0.726367 8.61812 1.20198 7.5864 2.10949 7.51683C2.87462 7.45818 3.37168 6.69195 3.10769 5.97809C2.79457 5.13139 3.54432 4.2742 4.43485 4.46074C5.18567 4.61802 5.8805 4.02156 5.83021 3.26293C5.77056 2.36314 6.73372 1.74993 7.53513 2.17747C8.2108 2.53794 9.04712 2.15957 9.21461 1.41763C9.41326 0.537635 10.5118 0.218088 11.1591 0.851987C11.7049 1.38644 12.615 1.25681 12.9867 0.591678Z" fill="#4F7FFA"/></svg>