<svg width="40" height="40" viewBox="0 0 40 40" fill="none" xmlns="http://www.w3.org/2000/svg">
<path d="M13.7551 3.3858C16.9624 -0.604561 23.0381 -0.604561 26.2454 3.3858C27.4985 4.94479 29.2893 5.97874 31.266 6.28443C36.3254 7.06688 39.3632 12.3286 37.5111 17.1014C36.7875 18.9661 36.7875 21.0339 37.5111 22.8986C39.3632 27.6714 36.3254 32.9331 31.266 33.7156C29.2893 34.0213 27.4985 35.0552 26.2454 36.6142C23.0381 40.6046 16.9624 40.6046 13.7551 36.6142C12.502 35.0552 10.7111 34.0213 8.73448 33.7156C3.67507 32.9331 0.637235 27.6714 2.48932 22.8986C3.21292 21.0339 3.21292 18.9661 2.48932 17.1014C0.637235 12.3286 3.67507 7.06688 8.73448 6.28443C10.7111 5.97874 12.502 4.94479 13.7551 3.3858Z" fill="#FFF84D"/>
<path d="M12.4658 20.0758C13.9149 19.3639 14.3026 14.9277 14.0293 13.2498C13.7624 11.5974 15.9868 10.4534 17.1435 12.1122L12.4658 20.0758Z" fill="url(#paint0_linear_108_567)"/>
<path d="M27.9482 20.0758C26.4991 19.3639 26.1178 14.9214 26.3911 13.2498C26.658 11.5974 24.4336 10.4534 23.2769 12.1122L27.9482 20.0758Z" fill="url(#paint1_linear_108_567)"/>
<path d="M20.2071 29.6472C32.9501 29.6472 27.9482 20.082 27.9482 20.082C27.3953 12.201 23.3531 11.7752 20.2071 11.7752C17.0611 11.7752 13.0189 12.201 12.466 20.0756C12.466 20.0756 7.4641 29.6472 20.2071 29.6472Z" fill="url(#paint2_linear_108_567)"/>
<path d="M27.9481 20.0757C27.9481 20.0757 28.1706 21.7282 28.2087 24.3276C28.2913 29.6409 20.2451 29.6409 20.2451 29.6409C32.9373 29.6282 27.9481 20.0821 27.9481 20.0757Z" fill="url(#paint3_linear_108_567)"/>
<path d="M12.4661 20.0757C12.4661 20.0757 12.1483 21.7282 12.2055 24.3276C12.3135 29.2913 20.1691 29.6409 20.1691 29.6409C7.4769 29.6282 12.4661 20.0821 12.4661 20.0757Z" fill="url(#paint4_linear_108_567)"/>
<path d="M22.6032 29.5137C23.0036 28.9799 23.0163 28.4206 23.0481 28.4206C24.3129 28.4206 24.9738 26.8444 24.9738 25.2237C24.9738 23.8699 22.9528 22.4336 20.2071 22.9547C17.4615 22.4336 15.4404 23.8699 15.4404 25.2237C15.4404 26.8444 16.1014 28.4206 17.3662 28.4206C17.398 28.4206 17.4107 28.9799 17.8111 29.5137C18.5293 29.5964 19.3237 29.6472 20.2071 29.6472C21.0906 29.6472 21.885 29.6027 22.6032 29.5137Z" fill="#EFA25F"/>
<path d="M12.466 20.0756C12.466 20.0756 10.8581 23.1517 11.786 25.8211C11.1949 23.6284 13.127 22.764 17.0166 21.887C21.0397 20.9845 20.2771 15.8491 16.0506 12.5378C14.2583 13.4785 12.7838 15.5441 12.466 20.0756Z" fill="url(#paint5_radial_108_567)"/>
<path d="M22.7553 26.6473L20.2067 25.0966L17.6581 26.6473C17.0671 28.3443 18.2619 29.8887 20.2067 29.8887C22.1515 29.8887 23.3464 28.3443 22.7553 26.6473Z" fill="url(#paint6_linear_108_567)"/>
<path d="M17.7158 27.1748C17.6522 27.1748 17.595 27.1685 17.5378 27.1621C17.4806 27.5498 17.5187 27.9248 17.6395 28.2617C17.6649 28.2617 17.6903 28.268 17.7158 28.268C18.6056 28.268 19.3428 27.7786 19.7813 27.0541C19.9974 26.6918 20.4169 26.6918 20.633 27.0541C21.0715 27.7786 21.8151 28.268 22.6986 28.268C22.724 28.268 22.7494 28.268 22.7748 28.2617C22.8956 27.9248 22.9274 27.5498 22.8765 27.1621C22.8193 27.1685 22.7558 27.1748 22.6986 27.1748C21.2558 27.1748 20.2072 26.2851 20.2072 25.0966C20.2072 26.2914 19.1521 27.1748 17.7158 27.1748Z" fill="url(#paint7_linear_108_567)"/>
<path d="M21.726 28.1218C21.726 28.9607 21.0459 29.6408 20.207 29.6408C19.368 29.6408 18.688 28.9607 18.688 28.1218C18.688 25.6304 19.368 24.6326 20.207 24.6326C21.0459 24.6326 21.726 25.6367 21.726 28.1218Z" fill="url(#paint8_linear_108_567)"/>
<path d="M21.726 28.1218C21.726 25.6367 21.0459 24.6326 20.207 24.6326C19.368 24.6326 18.688 25.6304 18.688 28.1218C18.688 28.1854 18.6943 28.2426 18.7007 28.2998C18.9994 28.1854 19.2663 28.0392 19.4824 27.8676C19.9146 27.5371 20.5057 27.5371 20.9315 27.8676C21.154 28.0392 21.4145 28.1854 21.7133 28.2998C21.7196 28.2426 21.726 28.179 21.726 28.1218Z" fill="url(#paint9_linear_108_567)"/>
<path d="M19.9717 26.3677C19.9717 25.7131 20.0797 25.1792 20.2068 25.1792C20.3339 25.1792 20.442 25.7131 20.442 26.3677C20.442 28.3125 20.3339 29.0942 20.2068 29.0942C20.0797 29.0879 19.9717 28.3061 19.9717 26.3677Z" fill="url(#paint10_linear_108_567)"/>
<path d="M20.2071 22.9484C17.4615 22.4653 15.4404 23.7937 15.4404 25.0457C15.4404 26.5456 16.1014 28.0011 17.3662 28.0011C19.0059 28.0011 20.2135 27.1113 20.2135 25.9228C20.2135 27.1113 21.4147 28.0011 23.0608 28.0011C24.3256 28.0011 24.9866 26.5456 24.9866 25.0457C24.9738 23.7937 22.9528 22.4653 20.2071 22.9484Z" fill="url(#paint11_linear_108_567)"/>
<path d="M17.3598 28.0011C18.8534 28.0011 19.9783 27.2702 20.1754 26.247C20.1881 26.2406 20.2516 26.2279 20.2389 26.247C20.4359 27.2702 21.5609 28.0011 23.0544 28.0011C24.3192 28.0011 24.9802 26.5457 24.9802 25.0458C24.9802 24.7598 24.8785 24.4547 24.6815 24.1496C24.7387 25.7703 24.1285 27.4736 23.1625 27.5054C21.7833 27.5499 20.7474 26.6601 21.2622 26.1834C21.7706 25.7068 22.6922 24.8996 22.2028 24.1306C22.2028 24.1306 21.599 24.7534 21.0524 25.3318C21.0334 24.4674 18.2115 24.1306 18.2115 24.1306C17.7221 24.8996 18.6437 25.7068 19.1521 26.1834C19.6606 26.6601 18.6309 27.5563 17.2518 27.5054C16.2921 27.4736 15.6819 25.7767 15.7328 24.1624C15.5421 24.4611 15.4404 24.7598 15.4404 25.0458C15.4404 26.5457 16.1014 28.0011 17.3598 28.0011Z" fill="url(#paint12_linear_108_567)"/>
<path d="M24.4714 20.3491C25.0085 20.3491 25.4438 19.8056 25.4438 19.1351C25.4438 18.4647 25.0085 17.9212 24.4714 17.9212C23.9344 17.9212 23.499 18.4647 23.499 19.1351C23.499 19.8056 23.9344 20.3491 24.4714 20.3491Z" fill="url(#paint13_radial_108_567)"/>
<path d="M23.3655 25.8973C23.4673 25.8973 23.5498 25.8148 23.5498 25.713C23.5498 25.6112 23.4673 25.5287 23.3655 25.5287C23.2637 25.5287 23.1812 25.6112 23.1812 25.713C23.1812 25.8148 23.2637 25.8973 23.3655 25.8973Z" fill="url(#paint14_linear_108_567)"/>
<path d="M23.842 26.7046C23.9438 26.7046 24.0263 26.622 24.0263 26.5203C24.0263 26.4185 23.9438 26.3359 23.842 26.3359C23.7402 26.3359 23.6577 26.4185 23.6577 26.5203C23.6577 26.622 23.7402 26.7046 23.842 26.7046Z" fill="url(#paint15_linear_108_567)"/>
<path d="M24.2742 25.4779C24.376 25.4779 24.4585 25.3954 24.4585 25.2936C24.4585 25.1918 24.376 25.1093 24.2742 25.1093C24.1724 25.1093 24.0898 25.1918 24.0898 25.2936C24.0898 25.3954 24.1724 25.4779 24.2742 25.4779Z" fill="url(#paint16_linear_108_567)"/>
<path d="M15.9421 20.3491C16.4792 20.3491 16.9145 19.8056 16.9145 19.1351C16.9145 18.4647 16.4792 17.9212 15.9421 17.9212C15.4051 17.9212 14.9697 18.4647 14.9697 19.1351C14.9697 19.8056 15.4051 20.3491 15.9421 20.3491Z" fill="url(#paint17_radial_108_567)"/>
<path d="M24.2807 19.0842C24.4527 19.0842 24.5921 18.9135 24.5921 18.7029C24.5921 18.4923 24.4527 18.3215 24.2807 18.3215C24.1087 18.3215 23.9692 18.4923 23.9692 18.7029C23.9692 18.9135 24.1087 19.0842 24.2807 19.0842Z" fill="url(#paint18_linear_108_567)"/>
<path d="M15.7519 19.0842C15.9239 19.0842 16.0633 18.9135 16.0633 18.7029C16.0633 18.4923 15.9239 18.3215 15.7519 18.3215C15.5799 18.3215 15.4404 18.4923 15.4404 18.7029C15.4404 18.9135 15.5799 19.0842 15.7519 19.0842Z" fill="url(#paint19_linear_108_567)"/>
<path d="M17.0481 25.9608C17.1499 25.9608 17.2324 25.8783 17.2324 25.7765C17.2324 25.6747 17.1499 25.5922 17.0481 25.5922C16.9463 25.5922 16.8638 25.6747 16.8638 25.7765C16.8638 25.8783 16.9463 25.9608 17.0481 25.9608Z" fill="url(#paint20_linear_108_567)"/>
<path d="M16.5715 26.7618C16.6733 26.7618 16.7558 26.6792 16.7558 26.5774C16.7558 26.4757 16.6733 26.3931 16.5715 26.3931C16.4697 26.3931 16.3872 26.4757 16.3872 26.5774C16.3872 26.6792 16.4697 26.7618 16.5715 26.7618Z" fill="url(#paint21_linear_108_567)"/>
<path d="M16.1394 25.5351C16.2412 25.5351 16.3237 25.4526 16.3237 25.3508C16.3237 25.249 16.2412 25.1665 16.1394 25.1665C16.0376 25.1665 15.9551 25.249 15.9551 25.3508C15.9551 25.4526 16.0376 25.5351 16.1394 25.5351Z" fill="url(#paint22_linear_108_567)"/>
<path d="M22.1391 23.7937C21.7641 23.2344 20.9824 22.9484 20.207 22.9357C19.4316 22.9484 18.6499 23.2344 18.2749 23.7937C16.686 26.1516 18.8914 26.4313 19.8765 26.4186C20.099 26.4122 20.3214 26.4122 20.5439 26.4186C21.5226 26.4376 23.728 26.1516 22.1391 23.7937Z" fill="url(#paint23_linear_108_567)"/>
<path d="M18.8152 23.9908C19.3554 24.3658 21.0587 24.3658 21.6053 23.9908C21.8913 23.7938 20.8807 23.3489 20.2134 23.3489C19.5333 23.3489 18.5291 23.7938 18.8152 23.9908Z" fill="url(#paint24_linear_108_567)"/>
<path d="M14.5951 13.6756C13.502 14.8831 12.6948 16.8597 12.466 20.0757C12.466 20.0757 12.4088 20.1901 12.3135 20.3934C14.5888 21.69 14.9256 15.22 14.5951 13.6756Z" fill="url(#paint25_linear_108_567)"/>
<path d="M13.9083 14.6034C14.0736 14.3301 14.2515 14.0823 14.4358 13.8598C14.3659 13.4658 14.3723 13.1035 14.4803 12.8556C14.9506 11.8133 16.3234 11.2222 16.209 12.4616C16.5713 12.29 16.9399 12.1565 17.3149 12.0612C16.1074 10.2371 13.4634 11.826 13.724 13.4404C13.7621 13.6819 13.8765 14.203 13.9083 14.6034Z" fill="url(#paint26_linear_108_567)"/>
<path d="M17.1435 12.1121C17.2643 12.0803 17.385 12.0485 17.5058 12.0167C17.5058 12.0167 15.8915 9.19483 11.0167 12.2328C7.75628 14.2666 10.0507 21.2705 12.4658 20.082C13.9149 19.3638 14.0992 15.042 14.0293 13.2497C13.9594 11.5782 15.9868 10.4532 17.1435 12.1121Z" fill="url(#paint27_linear_108_567)"/>
<path opacity="0.5" d="M17.1435 12.112C17.2325 12.0866 17.3151 12.0675 17.4041 12.0421C16.794 11.273 16.1648 10.9616 15.1415 11.1586C14.2708 11.3302 13.6607 12.4488 13.6988 13.4276C13.7369 14.3555 13.6988 15.8046 13.4954 17.1011C13.2539 18.5756 12.8408 19.529 12.326 19.7832C11.4489 20.2154 10.4956 19.1985 9.94264 18.2007C9.87273 18.0735 9.80281 17.9401 9.73926 17.8003C10.2731 19.44 11.3536 20.6285 12.4658 20.0819C13.9149 19.3637 14.0992 15.0419 14.0293 13.2496C13.9594 11.5781 15.9868 10.4532 17.1435 12.112Z" fill="url(#paint28_linear_108_567)"/>
<path d="M25.8191 13.6756C26.9123 14.8831 27.7194 16.8597 27.9482 20.082C27.9482 20.082 28.0054 20.1964 28.1008 20.3998C25.8255 21.69 25.4886 15.22 25.8191 13.6756Z" fill="url(#paint29_linear_108_567)"/>
<path d="M26.5052 14.6034C26.34 14.3301 26.162 14.0823 25.9777 13.8598C26.0476 13.4658 26.0413 13.1035 25.9332 12.8556C25.4629 11.8133 24.0901 11.2222 24.2045 12.4616C23.8422 12.29 23.4736 12.1565 23.0986 12.0612C24.3062 10.2371 26.9501 11.826 26.6895 13.4404C26.6514 13.6819 26.537 14.203 26.5052 14.6034Z" fill="url(#paint30_linear_108_567)"/>
<path d="M23.2705 12.1121C23.1497 12.0803 23.029 12.0485 22.9082 12.0167C22.9082 12.0167 24.5225 9.19484 29.3973 12.2328C32.6577 14.2666 30.3633 21.2705 27.9482 20.082C26.4991 19.3702 26.3148 15.042 26.3911 13.2561C26.4546 11.5782 24.4272 10.4532 23.2705 12.1121Z" fill="url(#paint31_linear_108_567)"/>
<path opacity="0.5" d="M23.2703 12.112C23.1814 12.0866 23.0987 12.0675 23.0098 12.0421C23.6199 11.273 24.2491 10.9616 25.2724 11.1586C26.1431 11.3302 26.7532 12.4488 26.7151 13.4276C26.677 14.3555 26.7151 15.8046 26.9185 17.1011C27.16 18.5756 27.5731 19.529 28.0879 19.7832C28.965 20.2154 29.9183 19.1985 30.4713 18.2007C30.5412 18.0735 30.6111 17.9401 30.6746 17.8003C30.1408 19.44 29.0603 20.6285 27.9481 20.0819C26.499 19.3701 26.3147 15.0419 26.391 13.256C26.4545 11.5781 24.4271 10.4532 23.2703 12.112Z" fill="url(#paint32_linear_108_567)"/>
<path opacity="0.5" d="M11.7922 25.8212C11.5634 24.9759 11.716 24.3276 12.2053 23.8001C12.199 21.5057 12.4723 20.0821 12.4723 20.0757C12.4659 20.0821 10.8579 23.1582 11.7922 25.8212Z" fill="url(#paint33_linear_108_567)"/>
<defs>
<linearGradient id="paint0_linear_108_567" x1="13.5356" y1="11.1475" x2="15.6765" y2="19.4918" gradientUnits="userSpaceOnUse">
<stop stop-color="#512D00"/>
<stop offset="1" stop-color="#A3541E"/>
</linearGradient>
<linearGradient id="paint1_linear_108_567" x1="26.8785" y1="11.1475" x2="24.7375" y2="19.4918" gradientUnits="userSpaceOnUse">
<stop stop-color="#512D00"/>
<stop offset="1" stop-color="#A3541E"/>
</linearGradient>
<linearGradient id="paint2_linear_108_567" x1="20.2071" y1="32.0973" x2="20.2071" y2="8.60559" gradientUnits="userSpaceOnUse">
<stop stop-color="#FBB87A"/>
<stop offset="0.0925465" stop-color="#FBBA7E"/>
<stop offset="0.1895" stop-color="#FCC18B"/>
<stop offset="0.2884" stop-color="#FCCCA0"/>
<stop offset="0.3888" stop-color="#FDDCBD"/>
<stop offset="0.4893" stop-color="#FEF0E2"/>
<stop offset="0.5546" stop-color="white"/>
<stop offset="0.6639" stop-color="#FEF0E1"/>
<stop offset="0.802" stop-color="#FDDFC2"/>
<stop offset="0.9189" stop-color="#FCD6AF"/>
<stop offset="1" stop-color="#FCD2A8"/>
</linearGradient>
<linearGradient id="paint3_linear_108_567" x1="24.5796" y1="27.1582" x2="24.5796" y2="5.24641" gradientUnits="userSpaceOnUse">
<stop stop-color="#FBB87A"/>
<stop offset="0.0948012" stop-color="#FCC695"/>
<stop offset="0.2764" stop-color="#FDDFC2"/>
<stop offset="0.4381" stop-color="#FEF0E3"/>
<stop offset="0.5722" stop-color="#FFFBF8"/>
<stop offset="0.6624" stop-color="white"/>
<stop offset="0.7499" stop-color="#FFFDFC"/>
<stop offset="0.8183" stop-color="#FFF8F2"/>
<stop offset="0.8803" stop-color="#FEF0E1"/>
<stop offset="0.9383" stop-color="#FDE4CA"/>
<stop offset="0.9933" stop-color="#FCD4AC"/>
<stop offset="1" stop-color="#FCD2A8"/>
</linearGradient>
<linearGradient id="paint4_linear_108_567" x1="15.8346" y1="27.1582" x2="15.8346" y2="5.24641" gradientUnits="userSpaceOnUse">
<stop stop-color="#FBB87A"/>
<stop offset="0.0948012" stop-color="#FCC695"/>
<stop offset="0.2764" stop-color="#FDDFC2"/>
<stop offset="0.4381" stop-color="#FEF0E3"/>
<stop offset="0.5722" stop-color="#FFFBF8"/>
<stop offset="0.6624" stop-color="white"/>
<stop offset="0.7499" stop-color="#FFFDFC"/>
<stop offset="0.8183" stop-color="#FFF8F2"/>
<stop offset="0.8803" stop-color="#FEF0E1"/>
<stop offset="0.9383" stop-color="#FDE4CA"/>
<stop offset="0.9933" stop-color="#FCD4AC"/>
<stop offset="1" stop-color="#FCD2A8"/>
</linearGradient>
<radialGradient id="paint5_radial_108_567" cx="0" cy="0" r="1" gradientUnits="userSpaceOnUse" gradientTransform="translate(15.7863 18.8526) rotate(94.4983) scale(7.23203 5.16718)">
<stop stop-color="#E89043"/>
<stop offset="0.0352166" stop-color="#E38C40"/>
<stop offset="0.2763" stop-color="#C77331"/>
<stop offset="0.5183" stop-color="#B36227"/>
<stop offset="0.7597" stop-color="#A75720"/>
<stop offset="1" stop-color="#A3541E"/>
</radialGradient>
<linearGradient id="paint6_linear_108_567" x1="20.2067" y1="26.0263" x2="20.2067" y2="29.6932" gradientUnits="userSpaceOnUse">
<stop stop-color="#FBE07A"/>
<stop offset="1" stop-color="white"/>
</linearGradient>
<linearGradient id="paint7_linear_108_567" x1="20.2072" y1="27.1582" x2="20.2072" y2="30.1132" gradientUnits="userSpaceOnUse">
<stop stop-color="#FCD2A8"/>
<stop offset="1" stop-color="white"/>
</linearGradient>
<linearGradient id="paint8_linear_108_567" x1="20.1955" y1="27.6565" x2="20.8753" y2="31.3732" gradientUnits="userSpaceOnUse">
<stop stop-color="#FF6688"/>
<stop offset="1" stop-color="#FB9C9C"/>
</linearGradient>
<linearGradient id="paint9_linear_108_567" x1="20.4103" y1="28.6897" x2="19.67" y2="25.003" gradientUnits="userSpaceOnUse">
<stop stop-color="#FF6688"/>
<stop offset="1" stop-color="#B30B0B"/>
</linearGradient>
<linearGradient id="paint10_linear_108_567" x1="20.5306" y1="28.6652" x2="19.7903" y2="24.9789" gradientUnits="userSpaceOnUse">
<stop stop-color="#FF6688"/>
<stop offset="1" stop-color="#B30B0B"/>
</linearGradient>
<linearGradient id="paint11_linear_108_567" x1="20.2071" y1="33.3715" x2="20.2071" y2="24.9694" gradientUnits="userSpaceOnUse">
<stop stop-color="#FBE07A"/>
<stop offset="1" stop-color="white"/>
</linearGradient>
<linearGradient id="paint12_linear_108_567" x1="20.2071" y1="31.1096" x2="20.2071" y2="24.1119" gradientUnits="userSpaceOnUse">
<stop stop-color="#FCD2A8"/>
<stop offset="1" stop-color="white"/>
</linearGradient>
<radialGradient id="paint13_radial_108_567" cx="0" cy="0" r="1" gradientUnits="userSpaceOnUse" gradientTransform="translate(649.437 17.9738) rotate(90) scale(1.48091 1.20161)">
<stop stop-color="#512D00"/>
<stop offset="1" stop-color="#3C2200"/>
</radialGradient>
<linearGradient id="paint14_linear_108_567" x1="23.2896" y1="17.8628" x2="23.3719" y2="26.424" gradientUnits="userSpaceOnUse">
<stop stop-color="#FBB87A"/>
<stop offset="0.5" stop-color="white"/>
<stop offset="1" stop-color="#FCD2A8"/>
</linearGradient>
<linearGradient id="paint15_linear_108_567" x1="23.757" y1="17.8583" x2="23.8393" y2="26.4196" gradientUnits="userSpaceOnUse">
<stop stop-color="#FBB87A"/>
<stop offset="0.5" stop-color="white"/>
<stop offset="1" stop-color="#FCD2A8"/>
</linearGradient>
<linearGradient id="paint16_linear_108_567" x1="24.1999" y1="17.8541" x2="24.2822" y2="26.4153" gradientUnits="userSpaceOnUse">
<stop stop-color="#FBB87A"/>
<stop offset="0.5" stop-color="white"/>
<stop offset="1" stop-color="#FCD2A8"/>
</linearGradient>
<radialGradient id="paint17_radial_108_567" cx="0" cy="0" r="1" gradientUnits="userSpaceOnUse" gradientTransform="translate(16.5791 17.9738) rotate(90) scale(1.48091 1.20161)">
<stop stop-color="#512D00"/>
<stop offset="1" stop-color="#3C2200"/>
</radialGradient>
<linearGradient id="paint18_linear_108_567" x1="24.0348" y1="18.1725" x2="24.5561" y2="19.3057" gradientUnits="userSpaceOnUse">
<stop stop-color="#A3541E"/>
<stop offset="1" stop-color="#512D00"/>
</linearGradient>
<linearGradient id="paint19_linear_108_567" x1="15.5055" y1="18.1725" x2="16.0268" y2="19.3057" gradientUnits="userSpaceOnUse">
<stop stop-color="#A3541E"/>
<stop offset="1" stop-color="#512D00"/>
</linearGradient>
<linearGradient id="paint20_linear_108_567" x1="17.1245" y1="17.8713" x2="17.0421" y2="26.4324" gradientUnits="userSpaceOnUse">
<stop stop-color="#FBB87A"/>
<stop offset="0.5" stop-color="white"/>
<stop offset="1" stop-color="#FCD2A8"/>
</linearGradient>
<linearGradient id="paint21_linear_108_567" x1="16.657" y1="17.8666" x2="16.5747" y2="26.428" gradientUnits="userSpaceOnUse">
<stop stop-color="#FBB87A"/>
<stop offset="0.5" stop-color="white"/>
<stop offset="1" stop-color="#FCD2A8"/>
</linearGradient>
<linearGradient id="paint22_linear_108_567" x1="16.2141" y1="17.8623" x2="16.1318" y2="26.4237" gradientUnits="userSpaceOnUse">
<stop stop-color="#FBB87A"/>
<stop offset="0.5" stop-color="white"/>
<stop offset="1" stop-color="#FCD2A8"/>
</linearGradient>
<linearGradient id="paint23_linear_108_567" x1="20.2045" y1="25.1805" x2="19.4355" y2="22.0531" gradientUnits="userSpaceOnUse">
<stop stop-color="#3C2200"/>
<stop offset="1" stop-color="#512D00"/>
</linearGradient>
<linearGradient id="paint24_linear_108_567" x1="19.4207" y1="21.7469" x2="20.2412" y2="24.0033" gradientUnits="userSpaceOnUse">
<stop stop-color="#643800"/>
<stop offset="1" stop-color="#512D00"/>
</linearGradient>
<linearGradient id="paint25_linear_108_567" x1="12.0291" y1="8.44377" x2="13.9502" y2="19.9975" gradientUnits="userSpaceOnUse">
<stop stop-color="#643800"/>
<stop offset="1" stop-color="#A3541E"/>
</linearGradient>
<linearGradient id="paint26_linear_108_567" x1="15.2854" y1="12.281" x2="14.6262" y2="10.1557" gradientUnits="userSpaceOnUse">
<stop stop-color="#512D00"/>
<stop offset="1" stop-color="#3C2200"/>
</linearGradient>
<linearGradient id="paint27_linear_108_567" x1="15.4888" y1="16.9796" x2="10.1979" y2="12.2919" gradientUnits="userSpaceOnUse">
<stop stop-color="#E89043"/>
<stop offset="1" stop-color="#A3541E"/>
</linearGradient>
<linearGradient id="paint28_linear_108_567" x1="10.7529" y1="7.43671" x2="12.5876" y2="12.3154" gradientUnits="userSpaceOnUse">
<stop stop-color="#FBB87A"/>
<stop offset="1" stop-color="#A3541E"/>
</linearGradient>
<linearGradient id="paint29_linear_108_567" x1="20.6824" y1="23.3098" x2="38.809" y2="5.18675" gradientUnits="userSpaceOnUse">
<stop stop-color="#FBB87A"/>
<stop offset="0.6624" stop-color="white"/>
<stop offset="0.7499" stop-color="#FFFDFC"/>
<stop offset="0.8183" stop-color="#FFF8F2"/>
<stop offset="0.8803" stop-color="#FEF0E1"/>
<stop offset="0.9383" stop-color="#FDE4CA"/>
<stop offset="0.9933" stop-color="#FCD4AC"/>
<stop offset="1" stop-color="#FCD2A8"/>
</linearGradient>
<linearGradient id="paint30_linear_108_567" x1="25.1282" y1="12.281" x2="25.7874" y2="10.1557" gradientUnits="userSpaceOnUse">
<stop stop-color="#512D00"/>
<stop offset="1" stop-color="#3C2200"/>
</linearGradient>
<linearGradient id="paint31_linear_108_567" x1="24.9252" y1="16.9797" x2="30.216" y2="12.2919" gradientUnits="userSpaceOnUse">
<stop stop-color="#E89043"/>
<stop offset="1" stop-color="#A3541E"/>
</linearGradient>
<linearGradient id="paint32_linear_108_567" x1="29.661" y1="7.43671" x2="27.8263" y2="12.3154" gradientUnits="userSpaceOnUse">
<stop stop-color="#FBB87A"/>
<stop offset="1" stop-color="#A3541E"/>
</linearGradient>
<linearGradient id="paint33_linear_108_567" x1="7.18183" y1="18.1547" x2="10.7507" y2="21.6138" gradientUnits="userSpaceOnUse">
<stop stop-color="#643800"/>
<stop offset="1" stop-color="#A3541E"/>
</linearGradient>
</defs>
</svg>
