<svg width="40" height="40" viewBox="0 0 40 40" fill="none" xmlns="http://www.w3.org/2000/svg">
<path d="M11.4599 6.07971C14.3935 -1.8483 25.6067 -1.8483 28.5404 6.07971C29.4627 8.57224 31.4279 10.5375 33.9204 11.4598C41.8484 14.3934 41.8484 25.6067 33.9204 28.5403C31.4279 29.4626 29.4627 31.4278 28.5404 33.9204C25.6067 41.8484 14.3935 41.8484 11.4599 33.9204C10.5375 31.4278 8.57233 29.4626 6.0798 28.5403C-1.84821 25.6067 -1.84821 14.3934 6.0798 11.4598C8.57233 10.5375 10.5375 8.57224 11.4599 6.07971Z" fill="#4F7FFA"/>
<path d="M22.3879 26.0561C22.0853 26.0879 21.8113 26.2503 21.6229 26.4734C21.4316 26.6985 21.3423 26.9923 21.3619 27.2875C21.3638 27.5846 21.4087 27.8883 21.577 28.1287C21.744 28.3716 22.0245 28.5161 22.3075 28.6177C22.0157 28.5517 21.7103 28.431 21.5148 28.1751C21.3166 27.922 21.2707 27.5921 21.2609 27.2894C21.2478 26.9797 21.3465 26.6503 21.5649 26.422C21.7767 26.1913 22.0825 26.05 22.3879 26.0561Z" fill="#804B24"/>
<path d="M21.9026 23.363C21.7034 23.4496 21.5196 23.568 21.3676 23.7153C21.2128 23.8608 21.1305 24.0601 21.074 24.2623L21.0744 24.259C21.0015 24.6277 21.0632 25.0202 21.2797 25.3266C21.4911 25.6373 21.8343 25.8404 22.1991 25.9592C21.8236 25.8867 21.4453 25.7037 21.2077 25.3776C21.0903 25.2172 21.009 25.0296 20.9697 24.8335C20.9299 24.6375 20.9482 24.4326 20.9846 24.2412L20.9856 24.2379C21.045 24.0255 21.1506 23.8126 21.3251 23.669C21.492 23.5207 21.6968 23.4295 21.9026 23.363Z" fill="#804B24"/>
<path d="M22.1706 20.3857C21.8129 20.4264 21.4668 20.5752 21.2204 20.8255C20.973 21.0758 20.8393 21.4206 20.8178 21.7719C20.7818 22.1219 20.8384 22.4873 21.0385 22.7778C21.2358 23.0693 21.5585 23.2649 21.9036 23.3659C21.5501 23.3014 21.1984 23.1269 20.9749 22.8232C20.7467 22.5219 20.6864 22.1275 20.7168 21.7635C20.7467 21.3977 20.8903 21.0243 21.1662 20.7703C21.4393 20.5134 21.8101 20.3894 22.1706 20.3857Z" fill="#804B24"/>
<path d="M22.4877 17.2014C22.1052 17.3062 21.725 17.4508 21.4234 17.6992C21.1194 17.9463 20.9548 18.3276 20.9801 18.7182C20.9749 19.1061 21.1017 19.5019 21.3963 19.7588C21.6867 20.0189 22.0785 20.1452 22.4652 20.2276C22.0729 20.1812 21.6647 20.083 21.3453 19.8172C21.0184 19.5552 20.8795 19.1211 20.8791 18.7192C20.858 18.3107 21.0418 17.8831 21.3748 17.6389C21.7012 17.3886 22.0972 17.2707 22.4877 17.2014Z" fill="#804B24"/>
<path d="M21.1704 25.214C21.4337 25.6701 21.9397 25.9064 22.4395 25.9738C22.9483 26.0524 23.4608 26.1062 23.9747 26.1389C24.4877 26.1824 25.0026 26.2096 25.5174 26.2077C25.7746 26.2044 26.0323 26.1979 26.2881 26.1726C26.5439 26.152 26.802 26.1258 27.048 26.0449C26.5612 26.2278 26.0332 26.2568 25.5188 26.2751C25.0017 26.2882 24.484 26.2737 23.9677 26.24C23.4524 26.1955 22.9385 26.1305 22.4288 26.0402C22.1725 25.9981 21.9172 25.9186 21.6927 25.7819C21.4692 25.6439 21.2859 25.4451 21.1704 25.214Z" fill="#804B24"/>
<path d="M21.1094 22.927C21.3067 23.1235 21.5606 23.2531 21.8258 23.3191C22.0895 23.3982 22.3668 23.3808 22.6455 23.3935L24.3098 23.4417L25.9731 23.5235C26.5249 23.5572 27.0865 23.5647 27.6154 23.3836C27.1001 23.6035 26.5212 23.6213 25.9717 23.5909L24.3075 23.5427L22.6441 23.4604C22.3706 23.4417 22.083 23.4548 21.8122 23.3663C21.5447 23.2826 21.2946 23.1352 21.1094 22.927Z" fill="#804B24"/>
<path d="M27.0543 20.3759C26.6564 20.3768 26.258 20.388 25.86 20.3843L24.6662 20.3866L23.4728 20.403C23.0753 20.4054 22.6769 20.4077 22.2808 20.4236H22.2776C21.8862 20.417 21.4807 20.5509 21.1988 20.8311C20.9112 21.1085 20.7756 21.5123 20.7573 21.9147C20.7606 21.713 20.7821 21.5095 20.8438 21.3144C20.9065 21.1198 21.0136 20.9378 21.159 20.7913C21.4489 20.4933 21.867 20.3455 22.2794 20.3445H22.2762C23.0735 20.2963 23.8698 20.2959 24.6662 20.3085C25.463 20.3174 26.2589 20.3324 27.0543 20.3759Z" fill="#804B24"/>
<path d="M20 30.5698C25.7118 30.5698 30.3422 25.9394 30.3422 20.2276C30.3422 14.5157 25.7118 9.88532 20 9.88532C14.2881 9.88532 9.65771 14.5157 9.65771 20.2276C9.65771 25.9394 14.2881 30.5698 20 30.5698Z" fill="url(#paint0_radial_108_492)"/>
<path opacity="0.5" d="M20 30.5698C25.7118 30.5698 30.3422 25.9394 30.3422 20.2276C30.3422 14.5157 25.7118 9.88532 20 9.88532C14.2881 9.88532 9.65771 14.5157 9.65771 20.2276C9.65771 25.9394 14.2881 30.5698 20 30.5698Z" fill="url(#paint1_radial_108_492)"/>
<path d="M27.1298 23.6664C27.1363 23.6082 27.1428 23.5501 27.1492 23.4983C27.1363 23.3109 27.0199 23.1364 26.8325 23.0717C26.7355 23.0329 26.6321 23.0329 26.5287 23.0588C24.415 23.647 22.2173 23.9508 20.0001 23.9508C17.783 23.9508 15.5853 23.6535 13.4716 23.0588C13.3747 23.0329 13.2648 23.0329 13.1678 23.0717C12.9868 23.1428 12.8705 23.3044 12.8511 23.4919C12.8575 23.5565 12.864 23.6212 12.8769 23.6923L12.9933 24.1771C13.0191 24.2675 13.0515 24.3645 13.0902 24.4679C13.8142 26.1615 15.7017 29.1413 20.0066 29.1413C24.3051 29.1413 26.1926 26.155 26.923 24.4615C26.9553 24.371 26.9876 24.2869 27.007 24.2029L27.1298 23.6664Z" fill="url(#paint2_radial_108_492)"/>
<path d="M19.9999 28.6694C21.6676 28.6694 22.9474 28.1911 23.9235 27.5124C22.8505 27.0147 21.5577 26.6915 19.9999 26.6915C18.4421 26.6915 17.1428 27.0147 16.0698 27.5189C17.0523 28.1976 18.3322 28.6694 19.9999 28.6694Z" fill="url(#paint3_radial_108_492)"/>
<path d="M27.0066 24.1835L27.123 23.6858C27.1359 23.6147 27.1424 23.5501 27.1424 23.4919C27.1295 23.3044 27.0066 23.1428 26.8257 23.0717C26.7287 23.0329 26.6253 23.0329 26.5218 23.0588C24.4082 23.647 22.2104 23.9508 19.9933 23.9508C17.7762 23.9508 15.5785 23.6535 13.4648 23.0588C13.3678 23.0329 13.2579 23.0329 13.161 23.0717C12.98 23.1428 12.8636 23.3044 12.8442 23.4919C12.8507 23.5501 12.8572 23.6212 12.8636 23.6923L12.98 24.1835C13.0058 24.274 13.0382 24.371 13.0769 24.4679C13.3678 25.1531 13.8526 26.0451 14.6024 26.866C13.8979 26.0257 14.764 25.5668 16.3218 25.7542C17.8732 25.9417 19.9933 25.9482 19.9933 25.9482C19.9933 25.9482 22.1135 25.9417 23.6648 25.7542C25.2161 25.5668 26.0888 26.0322 25.3842 26.866C26.1405 26.0451 26.6188 25.1531 26.9097 24.4679C26.9485 24.3645 26.9808 24.274 27.0066 24.1835Z" fill="url(#paint4_linear_108_492)"/>
<path d="M19.9998 24.4226C17.7633 24.4226 15.5526 24.1253 13.4131 23.5306L13.4389 23.8215C13.4907 24.3774 13.8979 24.8363 14.4408 24.9591C16.2572 25.3599 18.1188 25.5603 19.9933 25.5603C22.0165 25.5603 24.0203 25.3276 25.9724 24.8622C26.2633 24.7911 26.4766 24.5454 26.5089 24.2481L26.58 23.5371C24.447 24.1253 22.2363 24.4226 19.9998 24.4226Z" fill="url(#paint5_radial_108_492)"/>
<path d="M20 30.5698C25.7118 30.5698 30.3422 25.9394 30.3422 20.2276C30.3422 14.5157 25.7118 9.88532 20 9.88532C14.2881 9.88532 9.65771 14.5157 9.65771 20.2276C9.65771 25.9394 14.2881 30.5698 20 30.5698Z" fill="url(#paint6_radial_108_492)"/>
<path d="M20 30.5698C25.7118 30.5698 30.3422 25.9394 30.3422 20.2276C30.3422 14.5157 25.7118 9.88532 20 9.88532C14.2881 9.88532 9.65771 14.5157 9.65771 20.2276C9.65771 25.9394 14.2881 30.5698 20 30.5698Z" fill="url(#paint7_radial_108_492)"/>
<path opacity="0.24" d="M28.3643 19.0188C28.4612 19.0059 28.5517 18.9994 28.6422 18.9929C28.6422 18.9994 28.6358 19.0123 28.6358 19.0253L28.6099 22.5158C28.6099 22.8002 28.2867 22.9553 28.0605 22.7808L25.3069 20.6412C25.2681 20.6089 25.2164 20.6025 25.1711 20.6154L21.8422 21.669C21.5707 21.753 21.3251 21.4945 21.4221 21.2295L22.5726 18.0428C22.6114 17.9393 22.592 17.823 22.5274 17.7325L20.5559 14.9789C20.4913 14.8884 20.4783 14.7785 20.5042 14.6815L20.8338 14.7139C23.9107 14.7526 23.9947 19.5553 28.3643 19.0188Z" fill="url(#paint8_radial_108_492)"/>
<path d="M26.5154 11.6693L24.4405 14.5264C24.4146 14.5651 24.3629 14.591 24.3177 14.5845L20.7884 14.494C20.504 14.4876 20.3359 14.8108 20.504 15.037L22.5207 17.81C22.5854 17.9005 22.6047 18.0169 22.566 18.1267L21.4218 21.3587C21.3249 21.6302 21.5834 21.8887 21.8549 21.7982L25.2097 20.7058C25.2549 20.6929 25.3067 20.6994 25.3454 20.7317L28.1443 22.8777C28.3705 23.0522 28.6937 22.8906 28.6937 22.6062V19.0769C28.6937 19.0252 28.7196 18.98 28.7584 18.9541L31.6671 16.9568C31.8998 16.7952 31.8481 16.4332 31.5766 16.3492L28.2219 15.2568C28.1766 15.2438 28.1378 15.2051 28.1249 15.1598L27.123 11.7727C27.0454 11.5012 26.6835 11.4366 26.5154 11.6693Z" fill="url(#paint9_radial_108_492)"/>
<path d="M29.6827 17.7067C30.439 17.1702 31.4797 16.5949 31.3375 16.2718L31.5831 16.3493C31.8546 16.4398 31.9063 16.7953 31.6736 16.9569L28.7648 18.9543C28.7261 18.9801 28.7002 19.0254 28.7002 19.0771C28.7131 18.4565 28.9264 18.2368 29.6827 17.7067Z" fill="url(#paint10_radial_108_492)"/>
<path d="M27.123 11.7727L28.1249 15.1534C28.1378 15.1986 28.1766 15.2374 28.2219 15.2503L31.5831 16.3427C31.8546 16.4332 31.9063 16.7887 31.6736 16.9503L28.8489 18.8959C28.7584 18.9606 28.7002 19.064 28.7002 19.1804V22.6062C28.7002 22.8906 28.377 23.0522 28.1508 22.8777L25.3519 20.7317C25.3131 20.6994 25.2614 20.6929 25.2162 20.7058L21.8614 21.7982C21.5899 21.8887 21.3378 21.6237 21.4283 21.3587L22.5983 18.0298C22.6177 17.9845 22.6047 17.9328 22.5789 17.894L20.504 15.037C20.3359 14.8043 20.504 14.4876 20.7884 14.494L24.3177 14.5845C24.3694 14.5845 24.4146 14.5651 24.4405 14.5264L26.5154 11.6693C26.6835 11.4366 27.0454 11.5012 27.123 11.7727Z" fill="url(#paint11_radial_108_492)"/>
<path d="M27.123 11.7727L28.1249 15.1534C28.1378 15.1986 28.1766 15.2374 28.2219 15.2503L31.5831 16.3427C31.8546 16.4332 31.9063 16.7887 31.6736 16.9503L28.8489 18.8959C28.7584 18.9606 28.7002 19.064 28.7002 19.1804V22.6062C28.7002 22.8906 28.377 23.0522 28.1508 22.8777L25.3519 20.7317C25.3131 20.6994 25.2614 20.6929 25.2162 20.7058L21.8614 21.7982C21.5899 21.8887 21.3378 21.6237 21.4283 21.3587L22.5983 18.0298C22.6177 17.9845 22.6047 17.9328 22.5789 17.894L20.504 15.037C20.3359 14.8043 20.504 14.4876 20.7884 14.494L24.3177 14.5845C24.3694 14.5845 24.4146 14.5651 24.4405 14.5264L26.5154 11.6693C26.6835 11.4366 27.0454 11.5012 27.123 11.7727Z" fill="url(#paint12_radial_108_492)"/>
<path opacity="0.24" d="M27.123 11.7727L28.1249 15.1534C28.1378 15.1986 28.1766 15.2374 28.2219 15.2503L31.5831 16.3427C31.8546 16.4332 31.9063 16.7887 31.6736 16.9503L28.8489 18.8959C28.7584 18.9606 28.7002 19.064 28.7002 19.1804V22.6062C28.7002 22.8906 28.377 23.0522 28.1508 22.8777L25.3519 20.7317C25.3131 20.6994 25.2614 20.6929 25.2162 20.7058L21.8614 21.7982C21.5899 21.8887 21.3378 21.6237 21.4283 21.3587L22.5983 18.0298C22.6177 17.9845 22.6047 17.9328 22.5789 17.894L20.504 15.037C20.3359 14.8043 20.504 14.4876 20.7884 14.494L24.3177 14.5845C24.3694 14.5845 24.4146 14.5651 24.4405 14.5264L26.5154 11.6693C26.6835 11.4366 27.0454 11.5012 27.123 11.7727Z" fill="url(#paint13_radial_108_492)"/>
<path opacity="0.24" d="M27.123 11.7727L28.1249 15.1534C28.1378 15.1986 28.1766 15.2374 28.2219 15.2503L31.5831 16.3427C31.8546 16.4332 31.9063 16.7887 31.6736 16.9503L28.8489 18.8959C28.7584 18.9606 28.7002 19.064 28.7002 19.1804V22.6062C28.7002 22.8906 28.377 23.0522 28.1508 22.8777L25.3519 20.7317C25.3131 20.6994 25.2614 20.6929 25.2162 20.7058L21.8614 21.7982C21.5899 21.8887 21.3378 21.6237 21.4283 21.3587L22.5983 18.0298C22.6177 17.9845 22.6047 17.9328 22.5789 17.894L20.504 15.037C20.3359 14.8043 20.504 14.4876 20.7884 14.494L24.3177 14.5845C24.3694 14.5845 24.4146 14.5651 24.4405 14.5264L26.5154 11.6693C26.6835 11.4366 27.0454 11.5012 27.123 11.7727Z" fill="url(#paint14_radial_108_492)"/>
<path d="M31.5832 16.3426L28.222 15.2567C28.1767 15.2438 28.1379 15.205 28.125 15.1597L27.1231 11.7727C27.1231 11.7727 26.955 11.9213 27.1554 12.6388C27.2912 13.1042 27.6273 14.3905 27.8212 15.0563C27.9311 15.4312 28.1832 15.4829 28.5581 15.5993L31.0402 16.362C31.0402 16.362 31.3182 16.4331 31.5832 16.3426Z" fill="url(#paint15_radial_108_492)"/>
<path d="M21.4218 21.3587C21.3249 21.6302 21.5834 21.8887 21.8549 21.7982L25.2097 20.7058C25.2549 20.6929 25.3067 20.6994 25.3454 20.7317L28.1443 22.8777C28.3705 23.0522 28.6937 22.8906 28.6937 22.6062V19.0769C28.6937 19.0252 28.7196 18.98 28.7584 18.9541L31.6671 16.9568C31.8998 16.7952 31.8481 16.4332 31.5766 16.3492L28.2219 15.2568C28.1766 15.2438 28.1378 15.2051 28.1249 15.1598L27.123 11.7727C27.039 11.5012 26.6835 11.4366 26.5154 11.6693L24.4405 14.5264C24.4146 14.5651 24.3629 14.591 24.3177 14.5845L20.7884 14.494C20.504 14.4876 20.3359 14.8108 20.504 15.037L22.5207 17.81C22.5854 17.9005 22.6047 18.0169 22.566 18.1267L21.4218 21.3587ZM21.6028 21.4233L22.7469 18.1914C22.8051 18.0233 22.7793 17.8423 22.6758 17.6937L20.6591 14.9271C20.6074 14.8625 20.6333 14.7914 20.6462 14.772C20.6591 14.7461 20.6979 14.6944 20.7755 14.6944C20.7755 14.6944 20.7755 14.6944 20.7819 14.6944L24.3112 14.7849C24.4211 14.7914 24.531 14.7332 24.5956 14.6427L26.6705 11.7857C26.7093 11.7339 26.7546 11.721 26.7869 11.721C26.7998 11.721 26.8063 11.721 26.8127 11.721C26.8386 11.7275 26.9097 11.7469 26.9291 11.8244L27.931 15.2051C27.9633 15.3149 28.0473 15.399 28.1508 15.4313L31.5055 16.5237C31.5831 16.5496 31.6025 16.6142 31.609 16.6465C31.6154 16.6724 31.6154 16.7435 31.5443 16.7887L28.6356 18.7861C28.5451 18.8507 28.4869 18.9541 28.4869 19.0705V22.5998C28.4869 22.6838 28.4287 22.7226 28.4029 22.7355C28.377 22.7484 28.3124 22.7743 28.2477 22.7226L25.4489 20.5766C25.3584 20.5055 25.242 20.4861 25.1321 20.5248L21.7774 21.6172C21.6998 21.6431 21.6416 21.5979 21.6222 21.5785C21.6222 21.5591 21.577 21.5009 21.6028 21.4233Z" fill="url(#paint16_radial_108_492)"/>
<path opacity="0.24" d="M11.6354 19.0188C11.5384 19.0059 11.4479 18.9994 11.3574 18.9929C11.3574 18.9994 11.3639 19.0123 11.3639 19.0253L11.3897 22.5158C11.3897 22.8002 11.7129 22.9553 11.9392 22.7808L14.6928 20.6412C14.7316 20.6089 14.7833 20.6025 14.8285 20.6154L18.1574 21.669C18.4289 21.753 18.6746 21.4945 18.5776 21.2295L17.427 18.0363C17.3882 17.9329 17.4076 17.8165 17.4723 17.726L19.4438 14.9724C19.5084 14.8819 19.5213 14.772 19.4955 14.6751L19.1658 14.7074C16.089 14.7526 16.005 19.5553 11.6354 19.0188Z" fill="url(#paint17_radial_108_492)"/>
<path d="M13.4843 11.6694L15.5593 14.5264C15.5851 14.5652 15.6368 14.591 15.6821 14.5846L19.2114 14.4941C19.4958 14.4876 19.6638 14.8108 19.4958 15.037L17.479 17.8101C17.4144 17.9006 17.395 18.0169 17.4338 18.1268L18.5779 21.3587C18.6749 21.6302 18.4163 21.8888 18.1448 21.7983L14.7901 20.7059C14.7448 20.693 14.6931 20.6994 14.6543 20.7317L11.8554 22.8778C11.6292 23.0523 11.306 22.8907 11.306 22.6063V19.077C11.306 19.0253 11.2802 18.98 11.2414 18.9542L8.33262 16.9568C8.09992 16.7952 8.15163 16.4332 8.42311 16.3492L11.7779 15.2568C11.8231 15.2439 11.8619 15.2051 11.8748 15.1599L12.8767 11.7792C12.9608 11.5013 13.3163 11.4367 13.4843 11.6694Z" fill="url(#paint18_radial_108_492)"/>
<path d="M10.3235 17.7067C9.56722 17.1702 8.52654 16.5949 8.66874 16.2718L8.42311 16.3493C8.15163 16.4398 8.09992 16.7953 8.33262 16.9569L11.2414 18.9543C11.2802 18.9801 11.306 19.0254 11.306 19.0771C11.2931 18.4565 11.0733 18.2368 10.3235 17.7067Z" fill="url(#paint19_radial_108_492)"/>
<path d="M17.8735 16.4075C18.41 15.6512 19.1922 14.7592 18.953 14.5007L19.2116 14.4942C19.496 14.4877 19.664 14.8109 19.496 15.0372L17.4275 17.8942C17.4017 17.933 17.3887 17.9847 17.4081 18.03C17.2077 17.4417 17.337 17.1638 17.8735 16.4075Z" fill="url(#paint20_radial_108_492)"/>
<path d="M19.2111 14.494L15.6819 14.5845C15.6301 14.5845 15.5849 14.5651 15.559 14.5263L13.4841 11.6693C13.4841 11.6693 13.3742 11.8696 13.8073 12.4708C14.0853 12.8651 14.8351 13.9639 15.2423 14.5263C15.4685 14.8495 15.7206 14.8107 16.1149 14.7913L18.7134 14.6814C18.707 14.6879 18.9978 14.662 19.2111 14.494Z" fill="url(#paint21_radial_108_492)"/>
<path d="M12.8767 11.7727L11.8748 15.1534C11.8619 15.1986 11.8231 15.2374 11.7779 15.2503L8.42311 16.3427C8.15163 16.4332 8.09992 16.7887 8.33262 16.9503L11.1573 18.8959C11.2478 18.9606 11.306 19.064 11.306 19.1804V22.6062C11.306 22.8906 11.6292 23.0522 11.8554 22.8777L14.6543 20.7317C14.6931 20.6994 14.7448 20.6929 14.7901 20.7058L18.1448 21.7982C18.4163 21.8887 18.6684 21.6237 18.5779 21.3587L17.4015 18.0298C17.3821 17.9845 17.395 17.9328 17.4209 17.894L19.4958 15.037C19.6638 14.8043 19.4958 14.4876 19.2114 14.494L15.6821 14.5845C15.6304 14.5845 15.5851 14.5651 15.5593 14.5264L13.4843 11.6693C13.3163 11.4366 12.9608 11.5012 12.8767 11.7727Z" fill="url(#paint22_radial_108_492)"/>
<path d="M12.8767 11.7727L11.8748 15.1534C11.8619 15.1986 11.8231 15.2374 11.7779 15.2503L8.42311 16.3427C8.15163 16.4332 8.09992 16.7887 8.33262 16.9503L11.1573 18.8959C11.2478 18.9606 11.306 19.064 11.306 19.1804V22.6062C11.306 22.8906 11.6292 23.0522 11.8554 22.8777L14.6543 20.7317C14.6931 20.6994 14.7448 20.6929 14.7901 20.7058L18.1448 21.7982C18.4163 21.8887 18.6684 21.6237 18.5779 21.3587L17.4015 18.0298C17.3821 17.9845 17.395 17.9328 17.4209 17.894L19.4958 15.037C19.6638 14.8043 19.4958 14.4876 19.2114 14.494L15.6821 14.5845C15.6304 14.5845 15.5851 14.5651 15.5593 14.5264L13.4843 11.6693C13.3163 11.4366 12.9608 11.5012 12.8767 11.7727Z" fill="url(#paint23_radial_108_492)"/>
<path opacity="0.24" d="M12.8767 11.7727L11.8748 15.1534C11.8619 15.1986 11.8231 15.2374 11.7779 15.2503L8.42311 16.3427C8.15163 16.4332 8.09992 16.7887 8.33262 16.9503L11.1573 18.8959C11.2478 18.9606 11.306 19.064 11.306 19.1804V22.6062C11.306 22.8906 11.6292 23.0522 11.8554 22.8777L14.6543 20.7317C14.6931 20.6994 14.7448 20.6929 14.7901 20.7058L18.1448 21.7982C18.4163 21.8887 18.6684 21.6237 18.5779 21.3587L17.4015 18.0298C17.3821 17.9845 17.395 17.9328 17.4209 17.894L19.4958 15.037C19.6638 14.8043 19.4958 14.4876 19.2114 14.494L15.6821 14.5845C15.6304 14.5845 15.5851 14.5651 15.5593 14.5264L13.4843 11.6693C13.3163 11.4366 12.9608 11.5012 12.8767 11.7727Z" fill="url(#paint24_radial_108_492)"/>
<path opacity="0.24" d="M12.8767 11.7727L11.8748 15.1534C11.8619 15.1986 11.8231 15.2374 11.7779 15.2503L8.42311 16.3427C8.15163 16.4332 8.09992 16.7887 8.33262 16.9503L11.1573 18.8959C11.2478 18.9606 11.306 19.064 11.306 19.1804V22.6062C11.306 22.8906 11.6292 23.0522 11.8554 22.8777L14.6543 20.7317C14.6931 20.6994 14.7448 20.6929 14.7901 20.7058L18.1448 21.7982C18.4163 21.8887 18.6684 21.6237 18.5779 21.3587L17.4015 18.0298C17.3821 17.9845 17.395 17.9328 17.4209 17.894L19.4958 15.037C19.6638 14.8043 19.4958 14.4876 19.2114 14.494L15.6821 14.5845C15.6304 14.5845 15.5851 14.5651 15.5593 14.5264L13.4843 11.6693C13.3163 11.4366 12.9608 11.5012 12.8767 11.7727Z" fill="url(#paint25_radial_108_492)"/>
<path d="M8.42334 16.3426L11.7781 15.2502C11.8233 15.2373 11.8621 15.1985 11.8751 15.1533L12.877 11.7727C12.877 11.7727 13.045 11.9213 12.8446 12.6388C12.7089 13.1042 12.3728 14.3905 12.1789 15.0563C12.069 15.4312 11.8169 15.4829 11.442 15.5993L8.95984 16.362C8.95984 16.362 8.6819 16.4331 8.42334 16.3426Z" fill="url(#paint26_radial_108_492)"/>
<path d="M22.1328 16.4075C21.5963 15.6512 20.8141 14.7592 21.0533 14.5007L20.7947 14.4942C20.5103 14.4877 20.3423 14.8109 20.5103 15.0372L22.5852 17.8942C22.6111 17.933 22.624 17.9847 22.6046 18.03C22.7921 17.4417 22.6628 17.1638 22.1328 16.4075Z" fill="url(#paint27_radial_108_492)"/>
<path d="M15.3653 15.1857C15.7854 15.8968 15.0873 17.0797 13.8139 17.823C12.5406 18.5664 11.1702 18.5987 10.7565 17.8877C10.3428 17.1766 11.0345 15.9937 12.3079 15.2504C13.5812 14.507 14.9451 14.4812 15.3653 15.1857Z" fill="url(#paint28_radial_108_492)"/>
<path d="M27.5626 14.8366C27.9827 15.5477 27.2846 16.7305 26.0112 17.4739C24.7378 18.2172 23.3675 18.2496 22.9538 17.5385C22.5401 16.8275 23.2317 15.6446 24.5051 14.9013C25.7785 14.1579 27.1424 14.1256 27.5626 14.8366Z" fill="url(#paint29_radial_108_492)"/>
<path d="M17.4403 18.1267C17.4015 18.0233 17.4209 17.9005 17.4855 17.81L19.4958 15.037C19.6638 14.8043 19.4958 14.4876 19.2114 14.494L15.6821 14.5845C15.6304 14.5845 15.5851 14.5651 15.5593 14.5264L13.4843 11.6693C13.3163 11.4366 12.9608 11.5012 12.8767 11.7727L11.8748 15.1534C11.8619 15.1986 11.8231 15.2374 11.7779 15.2503L8.42311 16.3427C8.15163 16.4332 8.09992 16.7887 8.33262 16.9503L11.2414 18.9477C11.2802 18.9735 11.306 19.0188 11.306 19.0705V22.5998C11.306 22.8842 11.6292 23.0458 11.8554 22.8712L14.6543 20.7252C14.6931 20.6929 14.7448 20.6864 14.7901 20.6994L18.1448 21.7918C18.4163 21.8823 18.6684 21.6172 18.5779 21.3522L17.4403 18.1267ZM18.3646 21.5785C18.3452 21.5979 18.2935 21.6431 18.2095 21.6172L14.8547 20.5249C14.7448 20.4925 14.6285 20.5119 14.538 20.5766L11.7391 22.729C11.6745 22.7808 11.6098 22.7549 11.584 22.742C11.5581 22.729 11.4999 22.6903 11.4999 22.6062V19.0769C11.4999 18.9671 11.4418 18.8572 11.3513 18.7925L8.4425 16.7952C8.3714 16.7499 8.37787 16.6788 8.37787 16.653C8.38433 16.6271 8.39726 16.556 8.48129 16.5302L11.8361 15.4378C11.9459 15.4054 12.0235 15.3149 12.0558 15.2115L13.0577 11.8309C13.0836 11.7533 13.1482 11.7339 13.1741 11.7275C13.1805 11.7275 13.187 11.7275 13.1999 11.7275C13.2323 11.7275 13.284 11.7404 13.3163 11.7921L15.3912 14.6492C15.4558 14.7397 15.5657 14.7914 15.6756 14.7914L19.2049 14.7009C19.2049 14.7009 19.2049 14.7009 19.2114 14.7009C19.2889 14.7009 19.3277 14.7591 19.3406 14.7784C19.3536 14.8043 19.3794 14.8689 19.3277 14.9336L17.311 17.7066C17.2076 17.8488 17.1817 18.0363 17.2399 18.2043L18.384 21.4363C18.4228 21.5009 18.384 21.5591 18.3646 21.5785Z" fill="url(#paint30_radial_108_492)"/>
<defs>
<radialGradient id="paint0_radial_108_492" cx="0" cy="0" r="1" gradientUnits="userSpaceOnUse" gradientTransform="translate(17.9664 16.0362) scale(12.4766 12.4766)">
<stop stop-color="#FFE030"/>
<stop offset="1" stop-color="#FFB92E"/>
</radialGradient>
<radialGradient id="paint1_radial_108_492" cx="0" cy="0" r="1" gradientUnits="userSpaceOnUse" gradientTransform="translate(17.9664 16.0362) scale(9.81587)">
<stop stop-color="#FFEA5F"/>
<stop offset="1" stop-color="#FFBC47" stop-opacity="0"/>
</radialGradient>
<radialGradient id="paint2_radial_108_492" cx="0" cy="0" r="1" gradientUnits="userSpaceOnUse" gradientTransform="translate(20.0005 26.0924) scale(5.49528 5.49527)">
<stop offset="0.00132565" stop-color="#7A4400"/>
<stop offset="1" stop-color="#643800"/>
</radialGradient>
<radialGradient id="paint3_radial_108_492" cx="0" cy="0" r="1" gradientUnits="userSpaceOnUse" gradientTransform="translate(20.0799 27.9193) scale(4.37221 1.32198)">
<stop offset="0.2479" stop-color="#FF0000"/>
<stop offset="1" stop-color="#C20000"/>
</radialGradient>
<linearGradient id="paint4_linear_108_492" x1="27.0691" y1="24.9556" x2="13.0189" y2="24.9556" gradientUnits="userSpaceOnUse">
<stop offset="0.00132565" stop-color="#3C2200"/>
<stop offset="0.5" stop-color="#512D00"/>
<stop offset="1" stop-color="#3C2200"/>
</linearGradient>
<radialGradient id="paint5_radial_108_492" cx="0" cy="0" r="1" gradientUnits="userSpaceOnUse" gradientTransform="translate(20.0005 24.545) scale(12.0528 12.0528)">
<stop offset="0.00132565" stop-color="white"/>
<stop offset="1" stop-color="#A9BCBE"/>
</radialGradient>
<radialGradient id="paint6_radial_108_492" cx="0" cy="0" r="1" gradientUnits="userSpaceOnUse" gradientTransform="translate(29.5121 19.8685) rotate(34.2288) scale(5.86909 5.90506)">
<stop stop-color="#FF8000" stop-opacity="0.5"/>
<stop offset="0.995" stop-color="#FF8000" stop-opacity="0"/>
</radialGradient>
<radialGradient id="paint7_radial_108_492" cx="0" cy="0" r="1" gradientUnits="userSpaceOnUse" gradientTransform="translate(10.4913 19.8703) rotate(145.771) scale(5.86909 5.90506)">
<stop stop-color="#FF8000" stop-opacity="0.5"/>
<stop offset="0.995" stop-color="#FF8000" stop-opacity="0"/>
</radialGradient>
<radialGradient id="paint8_radial_108_492" cx="0" cy="0" r="1" gradientUnits="userSpaceOnUse" gradientTransform="translate(24.9207 18.4238) rotate(180) scale(8.69997 8.69996)">
<stop stop-color="white"/>
<stop offset="1" stop-color="white" stop-opacity="0"/>
</radialGradient>
<radialGradient id="paint9_radial_108_492" cx="0" cy="0" r="1" gradientUnits="userSpaceOnUse" gradientTransform="translate(26.3969 15.868) rotate(-170.266) scale(5.63738)">
<stop stop-color="#FFEA5F"/>
<stop offset="0.4904" stop-color="#FFE95D"/>
<stop offset="0.667" stop-color="#FFE756"/>
<stop offset="0.793" stop-color="#FFE34B"/>
<stop offset="0.8947" stop-color="#FEDD3A"/>
<stop offset="0.9809" stop-color="#FED524"/>
<stop offset="1" stop-color="#FED31E"/>
</radialGradient>
<radialGradient id="paint10_radial_108_492" cx="0" cy="0" r="1" gradientUnits="userSpaceOnUse" gradientTransform="translate(30.1222 18.7663) rotate(-130.782) scale(1.04261 2.80734)">
<stop stop-color="#D86D00"/>
<stop offset="0.3292" stop-color="#DC6C0A" stop-opacity="0.6708"/>
<stop offset="0.8792" stop-color="#E86823" stop-opacity="0.1208"/>
<stop offset="1" stop-color="#EB672A" stop-opacity="0"/>
</radialGradient>
<radialGradient id="paint11_radial_108_492" cx="0" cy="0" r="1" gradientUnits="userSpaceOnUse" gradientTransform="translate(23.6189 22.2291) rotate(-16.5811) scale(3.09958 1.46882)">
<stop stop-color="#D86D00"/>
<stop offset="0.3292" stop-color="#DC6C0A" stop-opacity="0.6708"/>
<stop offset="0.8792" stop-color="#E86823" stop-opacity="0.1208"/>
<stop offset="1" stop-color="#EB672A" stop-opacity="0"/>
</radialGradient>
<radialGradient id="paint12_radial_108_492" cx="0" cy="0" r="1" gradientUnits="userSpaceOnUse" gradientTransform="translate(24.6706 24.0999) rotate(12.5087) scale(4.09788 4.20109)">
<stop stop-color="#D86D00"/>
<stop offset="0.3292" stop-color="#DC6C0A" stop-opacity="0.6708"/>
<stop offset="0.8792" stop-color="#E86823" stop-opacity="0.1208"/>
<stop offset="1" stop-color="#EB672A" stop-opacity="0"/>
</radialGradient>
<radialGradient id="paint13_radial_108_492" cx="0" cy="0" r="1" gradientUnits="userSpaceOnUse" gradientTransform="translate(24.1132 19.3752) rotate(31.2857) scale(4.33291 3.27502)">
<stop stop-color="#FFA754"/>
<stop offset="0.3697" stop-color="#FFB152" stop-opacity="0.6303"/>
<stop offset="0.9874" stop-color="#FFCA4B" stop-opacity="0.0126062"/>
<stop offset="1" stop-color="#FFCB4B" stop-opacity="0"/>
</radialGradient>
<radialGradient id="paint14_radial_108_492" cx="0" cy="0" r="1" gradientUnits="userSpaceOnUse" gradientTransform="translate(26.5936 15.7578) rotate(31.2857) scale(2.61061 1.97323)">
<stop stop-color="white"/>
<stop offset="1" stop-color="white" stop-opacity="0"/>
</radialGradient>
<radialGradient id="paint15_radial_108_492" cx="0" cy="0" r="1" gradientUnits="userSpaceOnUse" gradientTransform="translate(30.1821 13.274) rotate(56.5611) scale(4.08321 2.81008)">
<stop stop-color="#ED9900"/>
<stop offset="1" stop-color="#ED9900" stop-opacity="0"/>
</radialGradient>
<radialGradient id="paint16_radial_108_492" cx="0" cy="0" r="1" gradientUnits="userSpaceOnUse" gradientTransform="translate(25.8795 17.1712) rotate(180) scale(4.8312 4.83119)">
<stop stop-color="#A3541E" stop-opacity="0.5"/>
<stop offset="0.5109" stop-color="#A5551D" stop-opacity="0.7555"/>
<stop offset="0.695" stop-color="#AC5819" stop-opacity="0.8475"/>
<stop offset="0.8261" stop-color="#B75E12" stop-opacity="0.9131"/>
<stop offset="0.9315" stop-color="#C86609" stop-opacity="0.9657"/>
<stop offset="1" stop-color="#D86D00"/>
</radialGradient>
<radialGradient id="paint17_radial_108_492" cx="0" cy="0" r="1" gradientUnits="userSpaceOnUse" gradientTransform="translate(15.0815 18.4238) scale(8.69996 8.69997)">
<stop stop-color="white"/>
<stop offset="1" stop-color="white" stop-opacity="0"/>
</radialGradient>
<radialGradient id="paint18_radial_108_492" cx="0" cy="0" r="1" gradientUnits="userSpaceOnUse" gradientTransform="translate(13.6061 15.8681) rotate(-9.73431) scale(5.63738)">
<stop stop-color="#FFEA5F"/>
<stop offset="0.4904" stop-color="#FFE95D"/>
<stop offset="0.667" stop-color="#FFE756"/>
<stop offset="0.793" stop-color="#FFE34B"/>
<stop offset="0.8947" stop-color="#FEDD3A"/>
<stop offset="0.9809" stop-color="#FED524"/>
<stop offset="1" stop-color="#FED31E"/>
</radialGradient>
<radialGradient id="paint19_radial_108_492" cx="0" cy="0" r="1" gradientUnits="userSpaceOnUse" gradientTransform="translate(9.88069 18.7658) rotate(-49.2176) scale(1.04261 2.80734)">
<stop stop-color="#D86D00"/>
<stop offset="0.3292" stop-color="#DC6C0A" stop-opacity="0.6708"/>
<stop offset="0.8792" stop-color="#E86823" stop-opacity="0.1208"/>
<stop offset="1" stop-color="#EB672A" stop-opacity="0"/>
</radialGradient>
<radialGradient id="paint20_radial_108_492" cx="0" cy="0" r="1" gradientUnits="userSpaceOnUse" gradientTransform="translate(18.5572 17.444) rotate(-150.251) scale(1.04267 2.80731)">
<stop stop-color="#D86D00"/>
<stop offset="0.3292" stop-color="#DC6C0A" stop-opacity="0.6708"/>
<stop offset="0.8792" stop-color="#E86823" stop-opacity="0.1208"/>
<stop offset="1" stop-color="#EB672A" stop-opacity="0"/>
</radialGradient>
<radialGradient id="paint21_radial_108_492" cx="0" cy="0" r="1" gradientUnits="userSpaceOnUse" gradientTransform="translate(16.8689 12.0693) rotate(37.0947) scale(4.08261 2.81004)">
<stop stop-color="#ED9900"/>
<stop offset="1" stop-color="#ED9900" stop-opacity="0"/>
</radialGradient>
<radialGradient id="paint22_radial_108_492" cx="0" cy="0" r="1" gradientUnits="userSpaceOnUse" gradientTransform="translate(16.3836 22.2274) rotate(-163.419) scale(3.09958 1.46882)">
<stop stop-color="#D86D00"/>
<stop offset="0.3292" stop-color="#DC6C0A" stop-opacity="0.6708"/>
<stop offset="0.8792" stop-color="#E86823" stop-opacity="0.1208"/>
<stop offset="1" stop-color="#EB672A" stop-opacity="0"/>
</radialGradient>
<radialGradient id="paint23_radial_108_492" cx="0" cy="0" r="1" gradientUnits="userSpaceOnUse" gradientTransform="translate(15.3327 24.0998) rotate(167.491) scale(4.09788 4.20109)">
<stop stop-color="#D86D00"/>
<stop offset="0.3292" stop-color="#DC6C0A" stop-opacity="0.6708"/>
<stop offset="0.8792" stop-color="#E86823" stop-opacity="0.1208"/>
<stop offset="1" stop-color="#EB672A" stop-opacity="0"/>
</radialGradient>
<radialGradient id="paint24_radial_108_492" cx="0" cy="0" r="1" gradientUnits="userSpaceOnUse" gradientTransform="translate(15.8903 19.3768) rotate(148.714) scale(4.33291 3.27502)">
<stop stop-color="#FFA754"/>
<stop offset="0.3697" stop-color="#FFB152" stop-opacity="0.6303"/>
<stop offset="0.9874" stop-color="#FFCA4B" stop-opacity="0.0126062"/>
<stop offset="1" stop-color="#FFCB4B" stop-opacity="0"/>
</radialGradient>
<radialGradient id="paint25_radial_108_492" cx="0" cy="0" r="1" gradientUnits="userSpaceOnUse" gradientTransform="translate(13.4099 15.7594) rotate(148.714) scale(2.61061 1.97323)">
<stop stop-color="white"/>
<stop offset="1" stop-color="white" stop-opacity="0"/>
</radialGradient>
<radialGradient id="paint26_radial_108_492" cx="0" cy="0" r="1" gradientUnits="userSpaceOnUse" gradientTransform="translate(9.8219 13.2726) rotate(123.439) scale(4.08321 2.81008)">
<stop stop-color="#ED9900"/>
<stop offset="1" stop-color="#ED9900" stop-opacity="0"/>
</radialGradient>
<radialGradient id="paint27_radial_108_492" cx="0" cy="0" r="1" gradientUnits="userSpaceOnUse" gradientTransform="translate(21.4465 17.4433) rotate(-29.7489) scale(1.04267 2.80731)">
<stop stop-color="#D86D00"/>
<stop offset="0.3292" stop-color="#DC6C0A" stop-opacity="0.6708"/>
<stop offset="0.8792" stop-color="#E86823" stop-opacity="0.1208"/>
<stop offset="1" stop-color="#EB672A" stop-opacity="0"/>
</radialGradient>
<radialGradient id="paint28_radial_108_492" cx="0" cy="0" r="1" gradientUnits="userSpaceOnUse" gradientTransform="translate(13.0609 16.523) rotate(-31.91) scale(2.69051 1.4481)">
<stop stop-color="white" stop-opacity="0.5"/>
<stop offset="0.995" stop-color="white" stop-opacity="0"/>
</radialGradient>
<radialGradient id="paint29_radial_108_492" cx="0" cy="0" r="1" gradientUnits="userSpaceOnUse" gradientTransform="translate(25.2561 16.1678) rotate(-31.91) scale(2.69052 1.4481)">
<stop stop-color="white" stop-opacity="0.5"/>
<stop offset="0.995" stop-color="white" stop-opacity="0"/>
</radialGradient>
<radialGradient id="paint30_radial_108_492" cx="0" cy="0" r="1" gradientUnits="userSpaceOnUse" gradientTransform="translate(14.1228 17.1712) scale(4.83119)">
<stop stop-color="#A3541E" stop-opacity="0.5"/>
<stop offset="0.5109" stop-color="#A5551D" stop-opacity="0.7555"/>
<stop offset="0.695" stop-color="#AC5819" stop-opacity="0.8475"/>
<stop offset="0.8261" stop-color="#B75E12" stop-opacity="0.9131"/>
<stop offset="0.9315" stop-color="#C86609" stop-opacity="0.9657"/>
<stop offset="1" stop-color="#D86D00"/>
</radialGradient>
</defs>
</svg>
