<svg width="40" height="40" viewBox="0 0 40 40" fill="none" xmlns="http://www.w3.org/2000/svg">
<path fill-rule="evenodd" clip-rule="evenodd" d="M0.386719 15.7295C0.386719 19.2677 1.84752 22.4372 4.1529 24.5721C4.24469 24.6715 4.33885 24.7695 4.43538 24.866L13.4162 33.8468C17.1004 37.531 23.0736 37.531 26.7578 33.8468L35.6014 25.0033C36.0379 24.5668 36.4268 24.1008 36.7681 23.6117C38.5346 21.5383 39.6133 18.7701 39.6133 15.7295C39.6133 13.2717 38.9085 10.9919 37.7053 9.11315C37.2257 8.10924 36.5702 7.1684 35.7386 6.33688C31.8095 2.40773 25.4391 2.40772 21.5099 6.33687C20.7241 7.12271 19.45 7.12272 18.6641 6.33688C14.735 2.40773 8.36455 2.40773 4.43539 6.33688C3.89727 6.87501 3.43285 7.45892 3.04212 8.07608C1.3885 10.1222 0.386719 12.7994 0.386719 15.7295Z" fill="#E023FF"/>
<path d="M20.0001 31.5826C25.4771 31.5826 29.9171 27.1425 29.9171 21.6655C29.9171 16.1884 25.4771 11.7484 20.0001 11.7484C14.523 11.7484 10.083 16.1884 10.083 21.6655C10.083 27.1425 14.523 31.5826 20.0001 31.5826Z" fill="url(#paint0_radial_108_906)"/>
<path opacity="0.5" d="M20.0001 31.5826C25.4771 31.5826 29.9171 27.1425 29.9171 21.6655C29.9171 16.1884 25.4771 11.7484 20.0001 11.7484C14.523 11.7484 10.083 16.1884 10.083 21.6655C10.083 27.1425 14.523 31.5826 20.0001 31.5826Z" fill="url(#paint1_radial_108_906)"/>
<path opacity="0.5" d="M20.0001 31.5826C25.4771 31.5826 29.9171 27.1425 29.9171 21.6655C29.9171 16.1884 25.4771 11.7484 20.0001 11.7484C14.523 11.7484 10.083 16.1884 10.083 21.6655C10.083 27.1425 14.523 31.5826 20.0001 31.5826Z" fill="url(#paint2_radial_108_906)"/>
<path opacity="0.5" d="M20.0001 31.5826C25.4771 31.5826 29.9171 27.1425 29.9171 21.6655C29.9171 16.1884 25.4771 11.7484 20.0001 11.7484C14.523 11.7484 10.083 16.1884 10.083 21.6655C10.083 27.1425 14.523 31.5826 20.0001 31.5826Z" fill="url(#paint3_radial_108_906)"/>
<path d="M17.8369 18.0457C17.8927 17.649 17.496 17.3453 16.7646 17.2523C16.1386 17.1655 14.7316 17.3267 13.6222 18.4114C13.4176 18.6097 13.6718 18.7709 13.8577 18.6469C14.5023 18.2316 16.1386 17.8102 17.3287 18.1015C17.8121 18.2254 17.8369 18.0457 17.8369 18.0457Z" fill="url(#paint4_linear_108_906)"/>
<path d="M22.1634 18.0457C22.1076 17.649 22.5043 17.3453 23.2357 17.2523C23.8617 17.1717 25.2687 17.3267 26.3781 18.4114C26.5827 18.6097 26.3286 18.7709 26.1426 18.6469C25.498 18.2316 23.8617 17.8101 22.6716 18.1015C22.1882 18.2254 22.1634 18.0457 22.1634 18.0457Z" fill="url(#paint5_linear_108_906)"/>
<path d="M24.1093 20.4632C24.1093 20.4632 25.7457 20.7483 26.1114 22.0252C26.1361 22.1057 26.1423 22.1925 26.1361 22.2731C26.1237 22.4404 25.9564 22.6016 25.6775 22.4218C23.942 21.3 22.8697 21.6905 22.0702 21.9632C21.7602 22.0685 21.5123 21.74 21.6239 21.4797C21.6549 21.4053 21.6797 21.3248 21.7293 21.2566C22.473 20.1719 24.1093 20.4632 24.1093 20.4632Z" fill="url(#paint6_radial_108_906)"/>
<path d="M24.0414 20.8536C24.0414 20.8536 25.374 21.0829 26.1302 22.1738C26.124 22.1242 26.1178 22.0746 26.1054 22.025C25.7397 20.7482 24.1034 20.4631 24.1034 20.4631C24.1034 20.4631 22.4733 20.1718 21.7171 21.2502C21.6861 21.2936 21.6675 21.337 21.6489 21.3804C22.715 20.6118 24.0414 20.8536 24.0414 20.8536Z" fill="url(#paint7_linear_108_906)"/>
<path d="M15.8909 20.4632C15.8909 20.4632 14.2545 20.7483 13.8888 22.0252C13.8641 22.1057 13.8579 22.1925 13.8641 22.2731C13.8764 22.4404 14.0438 22.6016 14.3227 22.4218C16.0582 21.3 17.1305 21.6905 17.93 21.9632C18.24 22.0685 18.4879 21.74 18.3763 21.4797C18.3453 21.4053 18.3205 21.3248 18.2709 21.2566C17.5272 20.1719 15.8909 20.4632 15.8909 20.4632Z" fill="url(#paint8_radial_108_906)"/>
<path d="M15.9589 20.8536C15.9589 20.8536 14.6263 21.0829 13.8701 22.1738C13.8763 22.1242 13.8825 22.0746 13.8949 22.025C14.2606 20.7482 15.8969 20.4631 15.8969 20.4631C15.8969 20.4631 17.527 20.1718 18.2832 21.2502C18.3142 21.2936 18.3328 21.337 18.3514 21.3804C17.2853 20.6118 15.9589 20.8536 15.9589 20.8536Z" fill="url(#paint9_linear_108_906)"/>
<path d="M17.2183 9.57768C15.1622 11.7592 17.6069 14.0463 19.0732 14.4761C19.0732 13.9452 18.1577 12.6134 18.3147 10.9872C18.4886 9.18684 20.944 8.88889 22.6378 8.78776C21.4496 8.23157 18.5537 8.16081 17.2183 9.57768Z" fill="#4B2A01"/>
<path d="M20.0001 27.5609C16.8828 27.5609 15.8888 24.2204 16.8354 24.7411C18.1067 25.4443 18.9182 25.5119 20.0001 25.5119C21.082 25.5119 21.8867 25.4443 23.1648 24.7411C24.1115 24.2204 23.1174 27.5609 20.0001 27.5609Z" fill="#643800"/>
<defs>
<radialGradient id="paint0_radial_108_906" cx="0" cy="0" r="1" gradientUnits="userSpaceOnUse" gradientTransform="translate(18.0489 17.6464) scale(11.9636)">
<stop stop-color="#FFE030"/>
<stop offset="1" stop-color="#FFB92E"/>
</radialGradient>
<radialGradient id="paint1_radial_108_906" cx="0" cy="0" r="1" gradientUnits="userSpaceOnUse" gradientTransform="translate(18.0489 17.6464) scale(9.41233)">
<stop stop-color="#FFEA5F"/>
<stop offset="1" stop-color="#FFBC47" stop-opacity="0"/>
</radialGradient>
<radialGradient id="paint2_radial_108_906" cx="0" cy="0" r="1" gradientUnits="userSpaceOnUse" gradientTransform="translate(14.5972 24.1326) rotate(-2.7703) scale(4.17136 3.30058)">
<stop stop-color="#FF4C00"/>
<stop offset="0.1542" stop-color="#FF4C00"/>
<stop offset="0.1795" stop-color="#FF4C00"/>
<stop offset="0.3996" stop-color="#FB4C0B" stop-opacity="0.7318"/>
<stop offset="0.7799" stop-color="#EF4B27" stop-opacity="0.2683"/>
<stop offset="1" stop-color="#E74A3A" stop-opacity="0"/>
</radialGradient>
<radialGradient id="paint3_radial_108_906" cx="0" cy="0" r="1" gradientUnits="userSpaceOnUse" gradientTransform="translate(25.4001 24.1326) rotate(-177.23) scale(4.17136 3.30058)">
<stop stop-color="#FF4C00"/>
<stop offset="0.1542" stop-color="#FF4C00"/>
<stop offset="0.1795" stop-color="#FF4C00"/>
<stop offset="0.3996" stop-color="#FB4C0B" stop-opacity="0.7318"/>
<stop offset="0.7799" stop-color="#EF4B27" stop-opacity="0.2683"/>
<stop offset="1" stop-color="#E74A3A" stop-opacity="0"/>
</radialGradient>
<linearGradient id="paint4_linear_108_906" x1="15.675" y1="18.4279" x2="15.814" y2="17.3922" gradientUnits="userSpaceOnUse">
<stop offset="0.00132565" stop-color="#3C2200"/>
<stop offset="1" stop-color="#7A4400"/>
</linearGradient>
<linearGradient id="paint5_linear_108_906" x1="24.325" y1="18.428" x2="24.186" y2="17.3923" gradientUnits="userSpaceOnUse">
<stop offset="0.00132565" stop-color="#3C2200"/>
<stop offset="1" stop-color="#7A4400"/>
</linearGradient>
<radialGradient id="paint6_radial_108_906" cx="0" cy="0" r="1" gradientUnits="userSpaceOnUse" gradientTransform="translate(23.9491 21.3827) rotate(9.98082) scale(1.78227 0.85993)">
<stop offset="0.00132565" stop-color="#7A4400"/>
<stop offset="1" stop-color="#643800"/>
</radialGradient>
<linearGradient id="paint7_linear_108_906" x1="24.2072" y1="19.9482" x2="24.0141" y2="21.0834" gradientUnits="userSpaceOnUse">
<stop offset="0.00132565" stop-color="#3C2200"/>
<stop offset="1" stop-color="#512D00"/>
</linearGradient>
<radialGradient id="paint8_radial_108_906" cx="0" cy="0" r="1" gradientUnits="userSpaceOnUse" gradientTransform="translate(16.0768 21.3544) rotate(170.019) scale(1.78227 0.85993)">
<stop offset="0.00132565" stop-color="#7A4400"/>
<stop offset="1" stop-color="#643800"/>
</radialGradient>
<linearGradient id="paint9_linear_108_906" x1="15.7766" y1="19.9385" x2="15.9697" y2="21.0737" gradientUnits="userSpaceOnUse">
<stop offset="0.00132565" stop-color="#3C2200"/>
<stop offset="1" stop-color="#512D00"/>
</linearGradient>
</defs>
</svg>
