<svg width="99" height="40" viewBox="0 0 99 40" fill="none" xmlns="http://www.w3.org/2000/svg">
<g clip-path="url(#clip0_1237_3604)">
<path d="M98.8901 0H0V40H98.8901V0Z" fill="#E3121C"/>
<mask id="mask0_1237_3604" style="mask-type:luminance" maskUnits="userSpaceOnUse" x="0" y="0" width="99" height="40">
<path d="M98.8901 0H0V40H98.8901V0Z" fill="white"/>
</mask>
<g mask="url(#mask0_1237_3604)">
<path d="M11.9116 22.7102C11.9116 22.4334 11.9236 22.1327 11.9417 21.8198C11.9657 21.507 12.0319 21.1942 12.1402 20.8874C12.2485 20.5805 12.429 20.2918 12.6696 20.0271C12.9102 19.7624 13.2532 19.5398 13.6923 19.3653C13.3675 19.233 13.1028 19.0705 12.8922 18.878C12.6816 18.6855 12.5072 18.481 12.3748 18.2524C12.2425 18.0238 12.1522 17.7952 12.0981 17.5726C12.044 17.344 12.0199 17.1394 12.0199 16.9469V15.8701C12.0199 15.5933 12.044 15.2264 12.0861 14.7812C12.1282 14.336 12.2846 13.8968 12.5493 13.4697C12.814 13.0426 13.2351 12.6756 13.8126 12.3688C14.3902 12.062 15.2083 11.9056 16.2671 11.9056C17.326 11.9056 18.1381 12.062 18.7216 12.3688C19.2992 12.6756 19.7263 13.0426 19.985 13.4697C20.2497 13.8968 20.4001 14.33 20.4482 14.7812C20.4903 15.2264 20.5144 15.5933 20.5144 15.8701V16.9469C20.5144 17.1394 20.4843 17.35 20.4242 17.5726C20.364 17.8012 20.2677 18.0238 20.1414 18.2464C20.0091 18.4689 19.8286 18.6735 19.6 18.872C19.3714 19.0705 19.0946 19.233 18.7758 19.3653C19.215 19.5277 19.5579 19.7142 19.7985 19.9248C20.0391 20.1354 20.2256 20.388 20.346 20.6708C20.4723 20.9535 20.5445 21.2664 20.5746 21.6032C20.6046 21.9401 20.6167 22.3071 20.6167 22.7042V24.0217C20.6167 25.2369 20.2437 26.2054 19.5037 26.9153C18.7638 27.6252 17.6809 27.9801 16.2551 27.9801C14.8293 27.9801 13.7525 27.6252 13.0065 26.9153C12.2665 26.2054 11.8936 25.2369 11.8936 24.0217V22.7102H11.9116ZM15.4309 17.0552C15.4309 17.4823 15.5091 17.7591 15.6716 17.8794C15.834 17.9997 16.0325 18.0659 16.2671 18.0659C16.4897 18.0659 16.6822 18.0057 16.8507 17.8794C17.0191 17.753 17.1034 17.4823 17.1034 17.0552V15.6054C17.1034 15.1782 17.0191 14.9075 16.8507 14.7812C16.6822 14.6548 16.4897 14.5947 16.2671 14.5947C16.0325 14.5947 15.834 14.6548 15.6716 14.7812C15.5091 14.9075 15.4309 15.1842 15.4309 15.6054V17.0552ZM15.4309 24.2924C15.4309 24.7195 15.5091 24.9962 15.6716 25.1226C15.834 25.2489 16.0325 25.3091 16.2671 25.3091C16.4897 25.3091 16.6822 25.2489 16.8507 25.1226C17.0191 24.9962 17.1034 24.7195 17.1034 24.2924V21.7717C17.1034 21.3446 17.0191 21.0678 16.8507 20.9415C16.6822 20.8152 16.4897 20.755 16.2671 20.755C16.0325 20.755 15.834 20.8152 15.6716 20.9415C15.5091 21.0678 15.4309 21.3446 15.4309 21.7717V24.2924Z" fill="white"/>
</g>
<mask id="mask1_1237_3604" style="mask-type:luminance" maskUnits="userSpaceOnUse" x="0" y="0" width="99" height="40">
<path d="M98.8901 0H0V40H98.8901V0Z" fill="white"/>
</mask>
<g mask="url(#mask1_1237_3604)">
<path d="M21.6575 15.8701C21.6575 14.6548 22.0244 13.6863 22.7704 12.9764C23.5104 12.2665 24.5933 11.9116 26.019 11.9116C27.4388 11.9116 28.5217 12.2665 29.2676 12.9764C30.0076 13.6863 30.3806 14.6548 30.3806 15.8701V24.0337C30.3806 25.2489 30.0076 26.2175 29.2676 26.9274C28.5277 27.6372 27.4448 27.9922 26.019 27.9922C24.5933 27.9922 23.5164 27.6372 22.7704 26.9274C22.0305 26.2175 21.6575 25.2489 21.6575 24.0337V15.8701ZM25.1828 24.2924C25.1828 24.7195 25.261 24.9962 25.4234 25.1166C25.5859 25.2429 25.7844 25.3031 26.019 25.3031C26.2416 25.3031 26.4341 25.2429 26.6026 25.1166C26.771 24.9902 26.8552 24.7195 26.8552 24.2924V15.6054C26.8552 15.1782 26.771 14.9015 26.6026 14.7752C26.4341 14.6488 26.2416 14.5887 26.019 14.5887C25.7844 14.5887 25.5859 14.6488 25.4234 14.7752C25.261 14.9015 25.1828 15.1782 25.1828 15.6054V24.2924Z" fill="white"/>
</g>
<mask id="mask2_1237_3604" style="mask-type:luminance" maskUnits="userSpaceOnUse" x="0" y="0" width="99" height="40">
<path d="M98.8901 0H0V40H98.8901V0Z" fill="white"/>
</mask>
<g mask="url(#mask2_1237_3604)">
<path d="M34.0742 25.9046H36.8055V16.2972H38.3997V25.9046H41.1309V13.9991H34.0742V25.9046Z" fill="white"/>
</g>
<mask id="mask3_1237_3604" style="mask-type:luminance" maskUnits="userSpaceOnUse" x="0" y="0" width="99" height="40">
<path d="M98.8901 0H0V40H98.8901V0Z" fill="white"/>
</mask>
<g mask="url(#mask3_1237_3604)">
<path d="M48.3203 14.6488C48.0075 14.3661 47.6345 14.1555 47.2014 14.0111C46.7682 13.8667 46.299 13.7946 45.7937 13.7946C45.2883 13.7946 44.8191 13.8667 44.3859 14.0111C43.9528 14.1555 43.5858 14.3661 43.267 14.6488C42.9481 14.9316 42.7075 15.2865 42.533 15.7257C42.3585 16.1588 42.2683 16.6642 42.2683 17.2417V22.656C42.2683 23.7269 42.5811 24.5691 43.2128 25.1827C43.8445 25.7964 44.7048 26.1032 45.7937 26.1032C46.9006 26.1032 47.7609 25.7964 48.3865 25.1827C49.0122 24.5691 49.325 23.7269 49.325 22.656V17.2417C49.325 16.6702 49.2348 16.1648 49.0603 15.7257C48.8798 15.2925 48.6332 14.9316 48.3203 14.6488ZM46.5878 22.8907C46.5878 22.9689 46.5817 23.0711 46.5697 23.1975C46.5577 23.3238 46.5276 23.4441 46.4795 23.5644C46.4313 23.6788 46.3531 23.781 46.2448 23.8652C46.1366 23.9495 45.9862 23.9916 45.7876 23.9916C45.5891 23.9916 45.4327 23.9495 45.3244 23.8652C45.2161 23.781 45.1319 23.6848 45.0838 23.5644C45.0356 23.4501 45.0056 23.3298 44.9995 23.1975C44.9935 23.0711 44.9935 22.9689 44.9935 22.8907V17.0131C44.9935 16.9108 44.9935 16.8025 44.9995 16.6762C45.0056 16.5499 45.0356 16.4295 45.0838 16.3213C45.1319 16.213 45.2161 16.1167 45.3244 16.0385C45.4327 15.9603 45.5891 15.9242 45.7876 15.9242C45.9862 15.9242 46.1366 15.9663 46.2448 16.0385C46.3471 16.1167 46.4253 16.2069 46.4795 16.3213C46.5276 16.4295 46.5577 16.5499 46.5697 16.6762C46.5817 16.8025 46.5878 16.9168 46.5878 17.0131V22.8907Z" fill="white"/>
</g>
<mask id="mask4_1237_3604" style="mask-type:luminance" maskUnits="userSpaceOnUse" x="0" y="0" width="99" height="40">
<path d="M98.8901 0H0V40H98.8901V0Z" fill="white"/>
</mask>
<g mask="url(#mask4_1237_3604)">
<path d="M53.6986 18.7036H53.1872V16.3032H56.8449V13.9991H50.45V25.9046H54.3423C54.9499 25.9046 55.4552 25.8024 55.8643 25.6099C56.2734 25.4113 56.5982 25.1466 56.8389 24.8158C57.0795 24.4849 57.254 24.0939 57.3502 23.6487C57.4525 23.2035 57.5006 22.7282 57.5006 22.2349C57.5006 21.122 57.1698 20.2557 56.508 19.636C55.8523 19.0104 54.9138 18.7036 53.6986 18.7036ZM54.7453 23.017C54.7213 23.2215 54.6792 23.39 54.613 23.5163C54.5468 23.6427 54.4445 23.7389 54.3122 23.7991C54.1798 23.8592 53.9994 23.8893 53.7647 23.8893H53.1872V20.6407H53.8189C54.0294 20.6407 54.1979 20.6888 54.3242 20.7791C54.4506 20.8753 54.5468 20.9956 54.613 21.146C54.6792 21.2964 54.7213 21.4649 54.7453 21.6574C54.7694 21.8499 54.7754 22.0544 54.7754 22.259C54.7754 22.5598 54.7634 22.8125 54.7453 23.017Z" fill="white"/>
</g>
<mask id="mask5_1237_3604" style="mask-type:luminance" maskUnits="userSpaceOnUse" x="0" y="0" width="99" height="40">
<path d="M98.8901 0H0V40H98.8901V0Z" fill="white"/>
</mask>
<g mask="url(#mask5_1237_3604)">
<path d="M61.3448 20.9535H64.2926V18.6494H61.3448V16.2972H64.7077V13.9991H58.6135V25.9046H64.84V23.6066H61.3448V20.9535Z" fill="white"/>
</g>
<mask id="mask6_1237_3604" style="mask-type:luminance" maskUnits="userSpaceOnUse" x="0" y="0" width="99" height="40">
<path d="M98.8901 0H0V40H98.8901V0Z" fill="white"/>
</mask>
<g mask="url(#mask6_1237_3604)">
<path d="M73.8518 13.9991H67.2704C67.2463 14.7932 67.2343 15.6475 67.2222 16.5499C67.2102 17.4583 67.1801 18.3486 67.132 19.227C67.0839 20.1053 66.9996 20.9295 66.8853 21.6935C66.771 22.4635 66.6026 23.1012 66.38 23.6066H65.7002V28.0945H68.0043V25.9107H72.3177V28.0945H74.6098V23.6066H73.8458V13.9991H73.8518ZM71.1206 23.6066H69.0511C69.1834 23.2095 69.2917 22.7102 69.3759 22.1146C69.4602 21.519 69.5263 20.8753 69.5805 20.1955C69.6346 19.5157 69.6827 18.8058 69.7128 18.0839C69.7489 17.362 69.773 16.6762 69.7971 16.0205H71.1206V23.6066Z" fill="white"/>
</g>
<mask id="mask7_1237_3604" style="mask-type:luminance" maskUnits="userSpaceOnUse" x="0" y="0" width="99" height="40">
<path d="M98.8901 0H0V40H98.8901V0Z" fill="white"/>
</mask>
<g mask="url(#mask7_1237_3604)">
<path d="M77.4675 13.9991L75.2656 25.9046H78.0149L78.2977 23.787H80.2167L80.4634 25.9046H83.345L81.1071 13.9991H77.4675ZM78.5804 21.6634L79.2783 15.852H79.3144L79.9581 21.6634H78.5804Z" fill="white"/>
</g>
<mask id="mask8_1237_3604" style="mask-type:luminance" maskUnits="userSpaceOnUse" x="0" y="0" width="99" height="40">
<path d="M98.8901 0H0V40H98.8901V0Z" fill="white"/>
</mask>
<g mask="url(#mask8_1237_3604)">
<path d="M84.512 13.9991V18.6494L85.0715 22.4635H86.413L86.9785 18.6494V13.9991H84.512Z" fill="white"/>
</g>
<mask id="mask9_1237_3604" style="mask-type:luminance" maskUnits="userSpaceOnUse" x="0" y="0" width="99" height="40">
<path d="M98.8901 0H0V40H98.8901V0Z" fill="white"/>
</mask>
<g mask="url(#mask9_1237_3604)">
<path d="M86.9785 23.1554H84.512V25.9046H86.9785V23.1554Z" fill="white"/>
</g>
</g>
<defs>
<clipPath id="clip0_1237_3604">
<rect width="98.8901" height="40" fill="white"/>
</clipPath>
</defs>
</svg>
