<svg width="42" height="42" viewBox="0 0 42 42" fill="none" xmlns="http://www.w3.org/2000/svg">
<path d="M17.0993 2.59142C18.9333 -0.232174 23.0667 -0.232173 24.9006 2.59142C26.0307 4.33139 28.1766 5.11244 30.1608 4.50597C33.3807 3.52181 36.547 6.1787 36.1369 9.52054C35.8842 11.5799 37.026 13.5575 38.9358 14.3684C42.035 15.6841 42.7527 19.7547 40.2905 22.0511C38.7732 23.4662 38.3767 25.7152 39.3185 27.5639C40.8468 30.5639 38.7801 34.1435 35.4178 34.32C33.3459 34.4287 31.5965 35.8966 31.1297 37.9181C30.372 41.1987 26.4879 42.6124 23.7989 40.5863C22.1418 39.3378 19.8582 39.3378 18.2011 40.5863C15.512 42.6124 11.6279 41.1987 10.8703 37.9181C10.4034 35.8966 8.65405 34.4287 6.58213 34.32C3.21985 34.1435 1.15316 30.5639 2.68149 27.5639C3.62329 25.7152 3.22674 23.4662 1.70944 22.0511C-0.75279 19.7547 -0.0350358 15.6841 3.06412 14.3684C4.97391 13.5575 6.11572 11.5799 5.86301 9.52054C5.45293 6.1787 8.61928 3.52182 11.8391 4.50597C13.8233 5.11244 15.9692 4.33139 17.0993 2.59142Z" fill="#4F60FA"/>
<rect x="8.05479" y="12.9875" width="25.8906" height="17.6892" rx="2.85" fill="white"/>
<rect x="8.05479" y="12.9875" width="25.8906" height="17.6892" rx="2.85" fill="url(#paint0_linear_108_1016)" fillOpacity="0.2"/>
<rect x="8.05479" y="12.9875" width="25.8906" height="17.6892" rx="2.85" stroke="white" stroke-width="0.3"/>
<rect x="8.05479" y="12.9875" width="25.8906" height="17.6892" rx="2.85" stroke="url(#paint1_linear_108_1016)" stroke-opacity="0.3" stroke-width="0.3"/>
<path d="M12.8484 17.5319V26.1323" stroke="black" stroke-width="0.4"/>
<path d="M21.5435 17.5319V26.1324" stroke="black" stroke-width="0.4"/>
<path d="M13.9353 17.5319V26.1324" stroke="black"/>
<path d="M22.6304 17.5319V26.1324" stroke="black"/>
<path d="M15.0222 17.5319V26.1324" stroke="black" stroke-width="0.3"/>
<path d="M23.7173 17.5319V26.1324" stroke="black" stroke-width="0.3"/>
<path d="M16.1091 17.5319V26.1324" stroke="black" stroke-width="0.3"/>
<path d="M24.8042 17.5319V26.1324" stroke="black" stroke-width="0.3"/>
<path d="M17.196 17.5319V26.1324" stroke="black"/>
<path d="M25.8911 17.5319V26.1324" stroke="black"/>
<path d="M18.283 17.5319V26.1324" stroke="black" stroke-width="0.4"/>
<path d="M26.978 17.5319V26.1324" stroke="black" stroke-width="0.4"/>
<path d="M19.3699 17.5319V26.1324" stroke="black" stroke-width="0.3"/>
<path d="M28.0649 17.5319V26.1324" stroke="black" stroke-width="0.3"/>
<path d="M20.4568 17.5319V26.1324" stroke="black"/>
<path d="M29.1519 17.5319V26.1324" stroke="black"/>
<defs>
<linearGradient id="paint0_linear_108_1016" x1="30.3737" y1="15.0512" x2="14.898" y2="26.5605" gradientUnits="userSpaceOnUse">
<stop stop-color="#4F60FA"/>
<stop offset="1" stop-color="#4F60FA" stop-opacity="0"/>
</linearGradient>
<linearGradient id="paint1_linear_108_1016" x1="8.775" y1="31.708" x2="29.4124" y2="20.5205" gradientUnits="userSpaceOnUse">
<stop stop-color="#4F60FA"/>
<stop offset="1" stop-color="#4F60FA" stop-opacity="0"/>
</linearGradient>
</defs>
</svg>
