<svg width="40" height="40" viewBox="0 0 40 40" fill="none" xmlns="http://www.w3.org/2000/svg">
<path d="M14.8688 2.13456C16.2189 1.18176 17.9357 0.9122 19.5128 1.4054L22.9706 2.48672C23.3416 2.60274 23.7242 2.67765 24.1116 2.7101L27.7218 3.01248C29.3685 3.1504 30.8569 4.04747 31.748 5.43902L33.7018 8.48996C33.9114 8.81732 34.1564 9.12066 34.4323 9.39451L37.0035 11.9468C38.1762 13.1109 38.7398 14.7548 38.528 16.3936L38.0635 19.9866C38.0137 20.3721 38.0064 20.7619 38.0417 21.1491L38.3708 24.757C38.5209 26.4026 37.896 28.0242 36.6803 29.1434L34.015 31.5972C33.729 31.8605 33.4728 32.1544 33.251 32.4737L31.184 35.4491C30.2412 36.8061 28.7201 37.6467 27.0695 37.7226L23.4504 37.8891C23.0621 37.907 22.6769 37.9675 22.3018 38.0695L18.8058 39.0201C17.2113 39.4537 15.5058 39.1198 14.1925 38.1169L11.3131 35.9182C11.0042 35.6823 10.6702 35.481 10.3173 35.318L7.02822 33.7991C5.52804 33.1063 4.43617 31.7543 4.07474 30.1419L3.28232 26.6067C3.19729 26.2274 3.07084 25.8586 2.90526 25.5069L1.36201 22.2291C0.658124 20.7341 0.69078 18.9965 1.45034 17.529L3.11567 14.3116C3.29436 13.9664 3.43457 13.6025 3.53379 13.2267L4.45849 9.7238C4.88026 8.12611 6.02216 6.81605 7.54731 6.18012L10.8912 4.78586C11.25 4.63626 11.5912 4.44769 11.9088 4.22354L14.8688 2.13456Z" fill="#FF9A02"/>
<path d="M32.8054 18.3705C32.6968 17.9878 32.6956 17.6497 32.7825 17.273C32.9466 16.5643 32.8561 15.9063 32.2045 15.456C32.0368 15.3401 32.0404 15.2072 32.0271 15.0503C31.9318 13.9226 31.0002 13.2429 30.5514 12.3048C30.5357 12.2722 30.4886 12.2565 30.4597 12.2287C29.7864 11.578 28.9284 11.2085 28.1622 10.699C27.8955 10.5215 27.6832 10.2668 27.5444 9.92631C27.3236 9.38542 27.2017 8.77208 26.6611 8.39901C25.8261 7.82311 24.9863 7.68306 24.1199 8.30846C23.8798 8.48232 23.7579 8.46663 23.5745 8.19739C22.7431 6.97434 21.4363 6.66526 20.1669 7.37639C19.957 7.4935 19.8267 7.52972 19.5878 7.40416C18.7636 6.96952 17.9346 7.12526 17.3024 7.82069C17.1274 8.01387 16.9983 8.05371 16.7461 7.99938C15.8918 7.81466 15.1654 8.06337 14.5995 8.74311C14.5126 8.84815 14.4679 8.99303 14.3026 9.01718C13.4725 9.1355 13.102 9.73675 12.8233 10.4322C12.7569 10.5976 12.7183 10.7763 12.4878 10.804C11.94 10.8717 11.5189 11.1602 11.1846 11.5864C11.1062 11.6854 11.0157 11.7192 10.883 11.7325C9.50861 11.8701 9.1261 12.3072 9.14662 13.6969C9.14903 13.8538 9.18765 13.9914 9.01027 14.1122C8.07753 14.7448 7.93031 15.6721 8.02443 16.714C8.06184 17.1281 8.2549 17.5302 8.13907 17.9588C7.97376 18.5673 8.03409 19.183 8.31162 19.7167C8.65068 20.3674 9.09352 20.9421 8.96562 21.7571C8.90046 22.1748 9.39399 22.3934 9.53758 22.7701C9.85372 23.6019 10.4245 23.8181 11.2595 23.4667C11.4827 23.0997 11.7132 23.1299 12.0655 23.352C12.5952 23.6852 13.0682 24.0112 13.0332 24.7236C13.032 24.7429 13.0344 24.767 13.0453 24.7815C13.5642 25.4637 13.5207 26.2146 13.3168 26.9849C13.3458 27.0525 13.3747 27.1201 13.4049 27.1878C13.9636 27.7311 14.0504 28.4651 14.2532 29.169C14.5162 30.0781 15.0351 30.7301 16.103 30.8726C16.5567 30.9329 16.9681 31.3374 17.3892 31.6018C17.5751 31.7177 17.3989 31.8952 17.4206 32.0413C18.3606 32.4784 19.2994 32.9202 20.243 33.3501C20.3117 33.3814 20.3866 33.6326 20.4348 33.6664C20.8149 33.6724 21.3458 33.7074 21.7235 33.7449C22.573 33.8318 23.1655 33.8258 24.021 33.775C24.6798 33.7364 25.539 33.4768 26.0023 32.9722C25.9577 33.0048 25.913 33.0361 25.8696 33.07C25.6813 33.2124 25.5003 33.2776 25.2747 33.2329C24.3588 33.5444 23.4213 33.5903 22.4704 33.4635C22.2339 33.4322 21.9974 33.3959 21.7609 33.3621C20.8946 33.2511 20.1199 32.8888 19.2994 32.4723C19.5166 32.3154 19.7217 32.1813 19.7651 31.9121C19.8146 31.6127 19.5105 31.4183 19.5045 31.2312C19.4816 30.4778 18.8324 29.862 19.017 29.1014C19.2282 28.2309 18.9374 27.76 18.0239 27.7009C17.8212 27.6876 17.6957 27.6997 17.6873 27.4316C17.6656 26.6927 17.3615 26.2376 16.5591 26.0384C16.103 25.9249 15.607 25.3586 15.5129 24.9964C15.3476 24.3638 14.7925 24.004 14.6731 23.3906C14.6272 23.1576 14.5174 22.9391 14.5633 22.6892C14.6224 22.3596 14.5198 22.1121 14.217 21.9322C13.9177 21.7547 13.8803 21.5422 14.1687 21.2814C14.8517 20.6645 14.9277 20.2853 14.5331 19.4933C14.3231 19.0708 14.0999 18.7303 14.6815 18.3548C15.058 18.1121 15.023 17.6147 14.6586 17.3092C14.2459 16.9639 14.3678 16.6706 14.6345 16.3409C15.3416 15.468 15.3524 15.0467 14.6489 14.0397C15.3042 14.0313 15.671 13.6486 15.9413 13.1306C16.0668 12.8903 16.2441 12.8336 16.4613 13.0413C16.5024 13.0811 16.5639 13.1161 16.6194 13.1222C17.2022 13.1922 17.6209 13.4554 18.0107 13.9323C18.3956 14.4032 19.0617 14.2788 19.6059 14.1798C20.1151 14.0868 20.6098 13.9649 21.1347 13.9685C21.3627 13.9697 21.6161 13.8816 21.814 13.7633C22.6611 13.2526 23.4273 13.3636 24.1803 13.9685C24.5531 14.2679 25.0165 14.3343 25.4907 14.2981C25.7875 14.1725 26.1169 14.2438 26.4222 14.117C26.7094 13.9975 26.7914 14.3114 26.8976 14.4744C27.5046 15.4028 27.6856 16.4834 27.9016 17.5398C28.0693 18.362 28.1224 19.2084 28.2696 20.0366C28.6292 22.0734 28.1586 24.0716 28.0271 26.0854C27.9402 27.4244 27.5637 28.709 27.2886 30.0129C27.799 30.1107 28.3106 30.2085 28.821 30.3051C29.2566 29.8463 29.5354 29.3248 29.5293 28.6704C29.5269 28.3456 29.7417 28.0824 29.8443 27.7866C29.6488 27.2868 29.5547 26.7857 29.6126 26.234C29.6765 25.6315 29.5366 25.0592 29.1649 24.534C28.9176 24.1839 28.8174 23.7553 28.891 23.2941C28.932 23.0357 28.9912 22.927 29.2542 23.026C29.7357 23.2071 30.2376 23.0623 30.7299 23.1081C31.1728 23.1504 31.5239 22.8739 31.7689 22.4984C32.091 22.0022 32.1405 21.4444 32.0766 20.8782C32.0476 20.6174 32.0911 20.4435 32.2914 20.2491C32.8211 19.7324 33.0045 19.072 32.8054 18.3705Z" fill="#4B2A01"/>
<path d="M11.2607 23.4667C11.484 23.0997 11.7144 23.1299 12.0668 23.352C12.5965 23.6852 13.0695 24.0112 13.0345 24.7236C13.0333 24.7429 13.0357 24.767 13.0478 24.7815C13.5666 25.4637 13.5232 26.2146 13.3193 26.9849C12.7944 26.9499 12.5289 26.5636 12.2647 26.1905C11.6891 25.3731 11.4417 24.4314 11.2607 23.4667Z" fill="#FFD93E"/>
<path d="M21.7623 33.3609C20.8959 33.2498 20.1213 32.8876 19.3007 32.4711C19.5191 32.3141 19.7231 32.1801 19.7665 31.9109C19.816 31.6115 19.5119 31.4171 19.5059 31.2299C19.4829 30.4766 18.8338 29.8608 19.0184 29.1002C19.2295 28.2297 18.9387 27.7588 18.0253 27.6997C17.8226 27.6864 17.6971 27.6985 17.6886 27.4304C17.6669 26.6915 17.3628 26.2364 16.5604 26.0371C16.1043 25.9237 15.6084 25.3574 15.5143 24.9952C15.349 24.3626 14.7939 24.0028 14.6744 23.3894C14.6286 23.1564 14.5188 22.9379 14.5646 22.688C14.6238 22.3584 14.5212 22.1109 14.2183 21.931C13.9191 21.7535 13.8817 21.541 14.1701 21.2802C14.853 20.6632 14.929 20.2841 14.5345 19.4921C14.3245 19.0695 14.1013 18.7291 14.6829 18.3536C15.0594 18.1109 15.0244 17.6135 14.66 17.308C14.2473 16.9627 14.3692 16.6693 14.6358 16.3397C15.3429 15.4668 15.3538 15.0455 14.6503 14.0385C15.3055 14.0301 15.6723 13.6473 15.9426 13.1294C16.0681 12.8891 16.2455 12.8324 16.4627 13.0401C16.5037 13.0799 16.5653 13.1149 16.6208 13.1209C17.2036 13.191 17.6223 13.4542 18.012 13.9311C18.397 14.4019 19.063 14.2776 19.6072 14.1786C20.1164 14.0856 20.6112 13.9637 21.136 13.9673C21.3629 13.9685 21.6175 13.8804 21.8154 13.762C22.6625 13.2513 23.4287 13.3624 24.1816 13.9673C24.5545 14.2667 25.0178 14.3331 25.492 14.2969C25.5101 14.3718 25.556 14.4526 25.5415 14.5203C25.3267 15.5187 25.4281 16.4339 26.0218 17.3189C26.3439 17.7994 26.1195 18.1532 25.5632 18.3512C23.7617 18.9911 23.1403 20.1622 23.6423 22.0094C23.8788 22.8787 24.1273 23.7456 24.5086 24.5654C24.727 25.0363 24.5883 25.3441 24.1961 25.6448C23.8184 25.9345 23.5035 25.9164 23.1149 25.6725C22.8712 25.5204 22.5695 25.4045 22.257 25.5325C22.1677 25.5687 22.1388 25.6629 22.1919 25.7269C22.3885 25.9623 22.6962 26.0202 22.9557 26.0166C23.4854 26.0082 23.7062 26.4815 24.1056 26.671C24.2709 26.7495 24.423 27.0706 24.2456 27.3049C24.0851 27.5174 23.8269 27.5536 23.5952 27.4075C23.2465 27.1865 22.899 27.2397 22.5647 27.399C21.9493 27.6912 21.346 28.0087 20.7366 28.3154C20.8778 28.4277 20.9985 28.4555 21.0986 28.4229C22.3656 28.0124 23.6797 28.4361 24.9575 28.1995C25.089 28.1754 25.3014 28.0595 25.3798 28.2623C25.4534 28.4543 25.2881 28.6003 25.153 28.7163C24.68 29.1207 24.1032 29.2777 23.5059 29.3839C23.2911 29.4226 23.0715 29.4624 22.87 29.5421C22.6021 29.6483 22.5502 29.885 22.6094 30.1433C22.6709 30.4126 22.8772 30.4681 23.1186 30.444C23.2778 30.4283 23.4359 30.3908 23.5952 30.38C24.0405 30.3498 24.4736 30.4259 24.6534 30.8834C24.8465 31.3748 24.6257 31.7805 24.2239 32.0896C23.8498 32.3757 23.4021 32.4928 22.9677 32.6462C22.5213 32.8007 22.029 32.8937 21.7623 33.3609ZM21.0636 19.2337C21.0431 19.0925 20.8971 18.9887 20.7584 18.874C19.6663 17.9721 17.7019 18.659 17.0431 19.4112C16.9647 19.5006 16.8657 19.6104 16.9767 19.7191C17.095 19.8338 17.2422 19.7614 17.3641 19.6962C18.3463 19.1722 19.3224 19.0985 20.324 19.6636C20.6099 19.8253 21.0492 19.5718 21.0636 19.2337ZM18.8229 20.3928C19.1306 20.5449 19.0956 20.7804 19.1608 20.982C19.2814 21.3538 19.5758 21.4854 19.9608 21.4516C20.3252 21.419 20.6305 21.0979 20.6474 20.8963C20.6727 20.5739 20.336 20.3143 19.9752 20.2443C19.6338 20.1779 19.3043 20.2998 18.8229 20.3928ZM17.5547 20.9615C18.0434 20.4556 18.6455 20.1344 19.2995 19.893C18.5068 19.9014 17.9517 20.3059 17.5547 20.9615ZM22.1605 24.3783C21.7466 24.4531 21.4824 24.6801 21.4425 25.0737C21.4136 25.3622 21.4896 25.6423 21.9771 25.8729C21.4437 25.1775 21.6477 24.7501 22.1605 24.3783Z" fill="#FFD93E"/>
<path d="M21.762 33.3609C22.0286 32.8949 22.5198 32.8007 22.9674 32.6426C23.4018 32.4892 23.8495 32.3733 24.2235 32.086C24.6266 31.7769 24.8474 31.3712 24.6531 30.8798C24.4733 30.4222 24.0401 30.3462 23.5949 30.3764C23.4356 30.3872 23.2775 30.4247 23.1183 30.4404C22.8769 30.4645 22.6706 30.409 22.609 30.1397C22.5499 29.8826 22.6018 29.6447 22.8697 29.5385C23.0712 29.4588 23.2908 29.4189 23.5056 29.3803C24.1029 29.2741 24.6784 29.1171 25.1527 28.7126C25.2878 28.5967 25.4531 28.4506 25.3795 28.2587C25.3023 28.0546 25.0899 28.1705 24.9572 28.1959C23.6793 28.4325 22.3653 28.0088 21.0983 28.4193C20.997 28.4519 20.8763 28.4241 20.7363 28.3118C21.3445 28.0051 21.949 27.6876 22.5644 27.3954C22.8986 27.2361 23.2462 27.1841 23.5949 27.4039C23.8266 27.55 24.0848 27.5137 24.2453 27.3012C24.4214 27.067 24.2706 26.7459 24.1053 26.6674C23.7059 26.4778 23.4851 26.0046 22.9554 26.013C22.6971 26.0178 22.3882 25.9599 22.1915 25.7232C22.1385 25.6593 22.1674 25.5651 22.2567 25.5289C22.5692 25.4021 22.8709 25.5168 23.1146 25.6689C23.5044 25.9116 23.8181 25.9309 24.1958 25.6411C24.588 25.3405 24.7279 25.0326 24.5083 24.5618C24.127 23.7432 23.8772 22.8751 23.6419 22.0058C23.14 20.1598 23.7614 18.9875 25.5629 18.3476C26.1192 18.1508 26.3436 17.797 26.0214 17.3153C25.4278 16.4291 25.3264 15.5151 25.5412 14.5166C25.5557 14.449 25.5098 14.3681 25.4917 14.2933C25.7874 14.1677 26.1168 14.239 26.4221 14.1122C26.7092 13.9927 26.7913 14.3066 26.8975 14.4696C27.5044 15.398 27.6854 16.4786 27.9014 17.535C28.0691 18.3572 28.1222 19.2036 28.2694 20.0318C28.629 22.0686 28.1584 24.0668 28.0269 26.0806C27.94 27.4196 27.5635 28.7042 27.2884 30.0081C26.7418 31.1599 26.3038 32.3794 25.2745 33.2305C24.3587 33.542 23.4211 33.5879 22.4703 33.4611C22.2338 33.431 21.9985 33.3947 21.762 33.3609ZM26.6839 19.8386C26.55 19.4426 26.258 19.3823 25.9539 19.3593C24.8558 19.2796 23.9967 20.2383 24.127 21.3865C24.2428 22.397 24.5723 23.3279 25.108 24.196C25.3216 24.5413 25.6148 24.93 25.365 25.3659C25.1527 25.7353 25.4736 25.8259 25.6305 25.984C25.8561 26.2122 26.0359 26.0118 26.1735 25.844C26.5572 25.3743 26.7044 24.8141 26.7141 24.2225C26.7298 23.3037 26.7177 22.3861 26.7177 21.4178C26.3122 21.4927 26.0432 21.5965 25.7813 21.4034C25.5098 21.2029 25.534 20.8987 25.5026 20.6174C24.9874 20.7236 24.9125 21.1353 24.7919 21.6062C24.6024 20.7055 25.0429 20.3916 26.4945 20.2805C26.2869 19.9461 25.8911 20.2117 25.6257 20.0113C25.9672 19.7481 26.3267 19.9449 26.6839 19.8386Z" fill="#AA6C26"/>
<path d="M20.4348 33.8793C20.3347 33.8781 20.2357 33.8769 20.138 33.8757C18.894 33.7417 17.6487 33.6064 16.4034 33.4712C15.2161 33.3167 14.03 33.1621 12.8076 33.004C13.2058 32.2904 13.7452 31.7761 14.176 31.1797C14.3533 30.9346 14.515 30.9817 14.7334 31.0782C15.6276 31.4743 16.5253 31.8618 17.4218 32.253C18.3618 32.6901 19.3006 33.1319 20.2442 33.5618C20.395 33.6318 20.5736 33.6499 20.4348 33.8793Z" fill="white"/>
<path d="M25.2759 33.2224C26.3039 32.3712 26.7432 31.153 27.2898 30C27.8014 30.0978 28.3118 30.1956 28.8222 30.2922C28.9827 30.4045 29.2216 30.3043 29.3821 30.5143C28.6412 31.0625 27.9052 31.6058 27.1679 32.1503C26.7335 32.4509 26.2907 32.7395 25.8696 33.0582C25.6825 33.2019 25.5003 33.2671 25.2759 33.2224Z" fill="white"/>
<path d="M21.0636 19.2337C21.0491 19.5718 20.6099 19.8253 20.3239 19.6635C19.3224 19.0985 18.345 19.1722 17.364 19.6961C17.2409 19.7613 17.0937 19.8338 16.9766 19.7191C16.8656 19.6104 16.9634 19.5018 17.043 19.4112C17.703 18.659 19.6663 17.9721 20.7583 18.8739C20.897 18.9886 21.043 19.0925 21.0636 19.2337Z" fill="#AA6C26"/>
<path d="M18.8228 20.3928C19.3042 20.2998 19.6336 20.1779 19.9739 20.2443C20.3347 20.3143 20.6726 20.5739 20.646 20.8963C20.6303 21.0979 20.3238 21.4191 19.9594 21.4517C19.5745 21.4855 19.2801 21.3539 19.1594 20.982C19.0955 20.7804 19.1304 20.5449 18.8228 20.3928Z" fill="#AA6C26"/>
<path d="M17.5547 20.9615C17.9517 20.3059 18.5055 19.9026 19.2995 19.8929C18.6455 20.1332 18.0434 20.4544 17.5547 20.9615Z" fill="#AA6C26"/>
<path d="M22.1603 24.3783C21.6463 24.7501 21.4436 25.1775 21.9769 25.873C21.4894 25.6424 21.4134 25.3622 21.4424 25.0737C21.4822 24.6801 21.7465 24.4531 22.1603 24.3783Z" fill="#AA6C26"/>
<path d="M26.6842 19.8386C26.327 19.9449 25.9675 19.7481 25.6248 20.0101C25.8902 20.2117 26.286 19.9461 26.4935 20.2793C25.0419 20.3904 24.6003 20.7043 24.791 21.605C24.9116 21.1341 24.9877 20.7224 25.5017 20.6161C25.5331 20.8975 25.5089 21.2029 25.7804 21.4021C26.0423 21.5953 26.3113 21.4927 26.7168 21.4166C26.7168 22.3837 26.7276 23.3025 26.7132 24.2213C26.7035 24.8129 26.5563 25.3743 26.1726 25.8428C26.0362 26.0106 25.8552 26.211 25.6296 25.9828C25.4739 25.8246 25.153 25.7341 25.3641 25.3646C25.6139 24.93 25.3207 24.5412 25.1071 24.1947C24.5714 23.3266 24.2407 22.3958 24.1261 21.3852C23.9946 20.237 24.8549 19.2784 25.953 19.3581C26.2583 19.3822 26.5503 19.4426 26.6842 19.8386Z" fill="#FFD93E"/>
</svg>
