<svg width="40" height="40" viewBox="0 0 40 40" fill="none" xmlns="http://www.w3.org/2000/svg">
<path d="M18.5524 0.845254C19.1822 -0.281751 20.8178 -0.281751 21.4476 0.845254C21.9786 1.79545 23.2787 1.98062 24.0584 1.21712C24.9832 0.311554 26.5525 0.76805 26.8363 2.02519C27.0755 3.08509 28.2703 3.62562 29.2355 3.11067C30.3804 2.4999 31.7563 3.37591 31.6711 4.66133C31.5993 5.74509 32.5919 6.59718 33.6645 6.37249C34.9367 6.106 36.0078 7.33055 35.5604 8.54012C35.1833 9.55993 35.8934 10.6545 36.9864 10.7383C38.2829 10.8377 38.9623 12.3116 38.1892 13.3473C37.5373 14.2206 37.9073 15.469 38.9323 15.8545C40.1479 16.3117 40.3807 17.9155 39.3443 18.6935C38.4705 19.3494 38.4705 20.6506 39.3443 21.3065C40.3807 22.0845 40.1479 23.6883 38.9323 24.1455C37.9073 24.531 37.5373 25.7794 38.1892 26.6527C38.9623 27.6884 38.2829 29.1623 36.9864 29.2617C35.8934 29.3455 35.1833 30.4401 35.5604 31.4599C36.0078 32.6694 34.9367 33.894 33.6645 33.6275C32.5919 33.4028 31.5993 34.2549 31.6711 35.3387C31.7563 36.6241 30.3804 37.5001 29.2355 36.8893C28.2703 36.3744 27.0755 36.9149 26.8363 37.9748C26.5525 39.2319 24.9832 39.6884 24.0584 38.7829C23.2787 38.0194 21.9786 38.2046 21.4476 39.1547C20.8178 40.2817 19.1822 40.2817 18.5524 39.1547C18.0214 38.2045 16.7213 38.0194 15.9416 38.7829C15.0168 39.6884 13.4475 39.2319 13.1637 37.9748C12.9245 36.9149 11.7297 36.3744 10.7645 36.8893C9.6196 37.5001 8.24366 36.6241 8.32888 35.3387C8.40072 34.2549 7.4081 33.4028 6.3355 33.6275C5.06331 33.894 3.99224 32.6694 4.43955 31.4599C4.81669 30.4401 4.1066 29.3455 3.01355 29.2617C1.71711 29.1623 1.03767 27.6884 1.81085 26.6527C2.46272 25.7794 2.09269 24.531 1.06775 24.1455C-0.147922 23.6883 -0.380688 22.0845 0.655716 21.3065C1.52952 20.6506 1.52952 19.3494 0.655716 18.6935C-0.380688 17.9155 -0.147922 16.3117 1.06775 15.8545C2.09269 15.469 2.46272 14.2206 1.81085 13.3473C1.03767 12.3116 1.71711 10.8377 3.01355 10.7383C4.1066 10.6545 4.81669 9.55993 4.43955 8.54012C3.99224 7.33055 5.06331 6.106 6.3355 6.37249C7.4081 6.59718 8.40072 5.74509 8.32888 4.66133C8.24366 3.37591 9.6196 2.4999 10.7645 3.11067C11.7297 3.62562 12.9245 3.08509 13.1637 2.02519C13.4475 0.76805 15.0168 0.311554 15.9416 1.21712C16.7213 1.98062 18.0214 1.79545 18.5524 0.845254Z" fill="#FF0F00"/>
<path d="M20.3689 9C19.5627 9 19.2562 9.64529 19.3186 10.8954C19.36 11.7195 19.6376 14.0169 18.4744 15.1812C17.3897 16.2665 17.0742 16.1701 15.8382 17.5715C14.6027 18.9725 13.5729 18.6843 12.1312 18.5604C10.3201 18.4051 10.9371 28.46 12.2135 28.2856C13.1196 28.1618 15.1793 27.9146 15.5087 27.9146C15.8382 27.9146 18.0976 29.6656 20.0809 29.6866C23.2932 29.7201 25.0648 29.1507 25.0648 29.1507L26.0063 27.0141L26.3213 20.4993L24.8172 17.3652C24.8172 17.3652 22.799 17.6949 22.2224 16.7884C21.6458 15.8819 22.6757 14.7691 22.6757 12.173C22.6757 9.57686 20.7807 9 20.3689 9Z" fill="url(#paint0_linear_108_439)"/>
<path d="M25.1771 29.1317L25.0548 28.6857C24.6929 28.6473 24.2271 28.8121 23.5911 28.8071C20.5535 28.7836 17.6497 27.9111 16.4037 26.9242C15.5875 26.2779 15.2296 25.4178 14.6531 25.6651C13.9417 25.9702 11.9235 26.4447 11.1812 25.5047C11.3888 27.113 11.7592 28.3476 12.2135 28.2857C13.1195 28.1618 15.1792 27.9146 15.5087 27.9146C15.8381 27.9146 18.0346 29.6197 20.0808 29.6866C22.728 29.773 25.0792 29.317 25.0792 29.317L25.1771 29.1317Z" fill="url(#paint1_linear_108_439)"/>
<path d="M13.4178 19.1952C14.6123 19.5249 15.3711 18.9795 15.9816 18.2373C16.5882 17.5001 17.1143 16.8463 18.6383 15.8574C20.1624 14.8685 19.9667 12.1485 19.8429 11.242C19.7191 10.3355 19.8015 9 20.3691 9C19.5629 9 19.2564 9.64529 19.3187 10.8954C19.3602 11.7195 19.6377 14.017 18.4746 15.1812C17.3899 16.2665 17.0744 16.1701 15.8384 17.5715C14.6029 18.9725 13.573 18.6843 12.1313 18.5604C12.1318 18.8731 12.2232 18.8656 13.4178 19.1952Z" fill="url(#paint2_linear_108_439)"/>
<path d="M22.2227 16.7884C21.6461 15.8819 22.6759 14.7691 22.6759 12.173C22.6759 9.57686 20.7815 9 20.3692 9C20.2608 9 20.1645 9.01199 20.0781 9.03496C21.7584 9.14034 22.7703 11.2605 22.1912 13.4466C21.7215 15.2206 21.4874 16.643 22.2546 17.4771C22.7508 18.017 23.7377 17.9251 24.818 17.3652C24.8175 17.3652 22.7992 17.6949 22.2227 16.7884Z" fill="url(#paint3_linear_108_439)"/>
<path d="M22.3359 17.7133C21.3475 18.0429 18.851 18.8186 16.96 20.5342C12.1678 24.8819 20.3496 25.4268 22.0393 29.1451C22.3623 29.8559 24.2503 25.4178 24.2503 25.4178L24.8608 24.3899L23.0966 19.6896L22.3359 17.7133Z" fill="url(#paint4_linear_108_439)"/>
<path d="M22.481 18.09C21.4926 18.4196 17.4546 21.0077 17.4546 22.2858C17.4546 25.9742 20.2511 24.1538 21.7626 28.5059C21.9718 29.1088 22.7111 29.6157 22.7111 29.6157C23.3236 29.1158 24.2506 25.4179 24.2506 25.4179L24.8611 24.39L23.097 19.6897L22.481 18.09Z" fill="url(#paint5_linear_108_439)"/>
<path d="M24.7621 29.3948L26.654 27.2307L27.0709 18.1902L22.335 17.7127C21.2478 18.2981 21.122 19.0987 21.5258 20.3843C21.6955 20.9252 21.0051 21.08 20.9607 22.6558C20.9298 23.7481 21.6446 23.7531 21.6446 24.0777C21.6446 24.4023 21.2887 24.3734 21.1704 25.3138C21.0017 26.6594 22.1278 26.6853 22.1278 26.973C22.1278 27.2607 21.5023 27.4315 21.5408 28.5283C21.5897 29.9193 19.0079 29.6381 17.2622 28.3725C16.5453 27.8525 15.9199 27.7991 15.4316 27.917C15.4621 27.9155 15.488 27.9145 15.5075 27.9145C15.837 27.9145 18.0499 29.6865 20.0796 29.6865C22.4533 29.6865 24.0947 29.5477 24.7621 29.3948Z" fill="url(#paint6_linear_108_439)"/>
<path d="M25.1977 18.3091C23.7356 18.3091 22.9324 19.7386 23.4885 20.8369C24.0446 21.9351 22.4587 23.389 22.6234 24.1047C22.7881 24.8204 23.0767 26.6319 23.3028 26.9316C23.5294 27.2313 22.9319 27.911 22.9319 27.911L24.7854 28.1378L26.5151 27.3746L26.4532 22.1419L26.6384 18.8655L25.1977 18.3091Z" fill="url(#paint7_linear_108_439)"/>
<path d="M15.8382 17.5715C15.0355 18.4815 14.3197 18.6788 13.5215 18.6713C13.7516 19.0429 13.9119 19.4489 13.8954 19.846C13.852 20.8868 14.0811 22.1699 14.2563 20.8354C14.3896 19.819 15.0785 18.5629 15.9071 17.4941C15.8847 17.5195 15.8622 17.5445 15.8382 17.5715Z" fill="url(#paint8_linear_108_439)"/>
<path d="M26.3055 17.3243C24.5768 17.2584 21.4688 17.1605 21.3994 18.9725C21.3495 20.2865 22.281 20.7175 23.7216 20.7725C25.1623 20.8274 25.8826 20.8549 26.4792 20.8774C27.0757 20.8998 28.9527 20.8889 28.9712 19.3021C28.9941 17.3198 26.3055 17.3243 26.3055 17.3243Z" fill="url(#paint9_linear_108_439)"/>
<path d="M23.4619 23.8744C22.9986 23.861 21.6224 24.2081 21.4936 25.0826C21.3922 25.7704 21.7432 26.6589 22.9407 26.8686C24.4578 27.1343 26.9857 27.2737 27.9302 26.9201C28.352 26.7623 28.7199 26.3203 28.7394 25.6505C28.7588 24.9807 28.2616 24.0782 27.1809 24.0468C26.1001 24.0158 25.537 24.0323 24.921 23.9593C24.1802 23.8724 23.8323 23.8854 23.4619 23.8744Z" fill="url(#paint10_linear_108_439)"/>
<path d="M22.9793 26.9311C22.4541 26.9311 21.8052 27.3946 21.8052 28.1673C21.8052 28.9399 22.0059 29.5118 23.1335 29.728C24.2612 29.9443 26.0683 29.759 26.7477 29.5427C27.2774 29.3739 27.4735 28.8785 27.4735 28.0594C27.4735 27.2403 26.9644 27.0969 26.4083 27.0969C25.8521 27.0969 25.1772 27.1983 24.7919 27.1783C23.7156 27.1214 23.5044 26.9311 22.9793 26.9311Z" fill="url(#paint11_linear_108_439)"/>
<path d="M26.1579 17.6899C24.6483 17.6325 21.9342 17.5451 21.8798 18.9775C21.8404 20.0163 22.655 20.36 23.913 20.4079C25.171 20.4559 28.4806 20.5163 28.4916 19.2622C28.5051 17.6949 26.1579 17.6899 26.1579 17.6899Z" fill="url(#paint12_linear_108_439)"/>
<path d="M23.6012 24.2441C23.1979 24.2326 22.0687 24.3285 21.9604 25.164C21.887 25.7294 22.18 26.4556 23.2228 26.6289C24.5442 26.8487 26.7447 26.9666 27.5668 26.6784C27.9337 26.5495 28.2537 26.1884 28.2692 25.6395C28.2852 25.0906 27.7795 24.4179 26.839 24.3904C25.8985 24.3629 25.3978 24.4503 24.8612 24.3894C24.2162 24.317 23.9237 24.253 23.6012 24.2441Z" fill="url(#paint13_linear_108_439)"/>
<path d="M23.2038 27.2128C22.7496 27.2128 22.1885 27.5859 22.1885 28.2082C22.1885 28.8305 22.3622 29.291 23.3376 29.4648C24.3131 29.6386 25.876 29.4898 26.4641 29.3155C26.9218 29.1796 27.0921 28.7806 27.0921 28.1208C27.0921 27.461 26.6513 27.3461 26.1701 27.3461C25.6888 27.3461 25.1053 27.428 24.7718 27.4116C23.8403 27.3661 23.6576 27.2128 23.2038 27.2128Z" fill="url(#paint14_linear_108_439)"/>
<path d="M22.9269 18.9784C22.9644 17.9914 23.7511 17.5185 24.745 17.3007C23.1585 17.3377 21.4503 17.6343 21.3989 18.9724C21.349 20.2864 22.2805 20.7174 23.7211 20.7724C23.8799 20.7784 24.0291 20.7844 24.1709 20.7894C23.3622 20.5526 22.8875 20.0187 22.9269 18.9784Z" fill="url(#paint15_linear_108_439)"/>
<path d="M23.0627 17.4791C22.1397 17.6809 21.4318 18.1174 21.3994 18.972C21.3579 20.0643 21.9954 20.5463 23.0392 20.7096C20.9216 19.864 21.6814 17.7813 23.0627 17.4791Z" fill="url(#paint16_linear_108_439)"/>
<path d="M20.6043 27.8616C20.3602 28.4225 19.1986 28.458 18.0095 27.9401C16.8204 27.4226 16.0547 26.5481 16.2988 25.9867C16.5429 25.4258 17.7045 25.3904 18.8936 25.9083C20.0822 26.4262 20.8484 27.3008 20.6043 27.8616Z" fill="url(#paint17_radial_108_439)"/>
<path d="M27.6001 19.2431C27.5881 20.0013 26.5748 20.3609 25.4661 20.4283C24.5595 20.4833 23.5531 19.8415 23.5791 19.1008C23.6051 18.3601 23.7369 17.7038 25.6208 17.7693C26.731 17.8077 27.6116 18.5025 27.6001 19.2431Z" fill="url(#paint18_radial_108_439)"/>
<path d="M27.8014 25.9077C27.7949 26.9575 26.6413 26.7563 25.5326 26.8292C24.1268 26.9221 23.1948 26.4841 23.1943 25.7429C23.1933 25.0017 23.728 24.4618 25.6134 24.4588C26.7241 24.4573 27.8094 24.5592 27.8014 25.9077Z" fill="url(#paint19_radial_108_439)"/>
<path d="M26.7849 28.5548C26.7794 29.4498 25.7311 29.5717 24.7377 29.5722C23.7443 29.5732 22.666 29.0463 22.6655 28.4145C22.665 27.7827 23.1428 27.3222 24.8285 27.3197C25.8214 27.3182 26.7919 27.4051 26.7849 28.5548Z" fill="url(#paint20_radial_108_439)"/>
<path d="M22.7825 25.2955C22.9402 24.1003 23.8567 24.1702 24.9075 24.0463C23.698 23.9559 23.1903 23.943 23.1903 23.943C23.0775 23.932 22.9512 23.9315 22.8199 23.945C22.427 24.0314 21.9817 24.2102 21.7172 24.5458C21.6273 24.6736 21.5544 24.8245 21.5065 25.0033C21.5015 25.0293 21.4965 25.0557 21.4935 25.0827C21.4082 25.7729 21.7431 26.659 22.9407 26.8687C23.1134 26.8992 23.2996 26.9277 23.4948 26.9541C23.5882 26.9661 23.69 26.9786 23.7993 26.9926C23.8288 26.9961 23.8582 26.9996 23.8882 27.0031C23.2272 26.6909 22.6661 26.174 22.7825 25.2955Z" fill="url(#paint21_linear_108_439)"/>
<path d="M23.0747 23.9354C22.9934 23.9329 22.907 23.9359 22.8186 23.9449C22.4223 24.0323 21.973 24.2136 21.7099 24.5548C21.6231 24.6806 21.5532 24.8295 21.5063 25.0038C21.5013 25.0297 21.4978 25.0557 21.4933 25.0827C21.372 25.7624 21.7084 26.5635 22.7547 26.8288C20.9696 25.8438 21.7314 23.9364 23.0747 23.9354Z" fill="url(#paint22_linear_108_439)"/>
<path d="M24.1144 27.1135C23.5868 27.0361 23.3701 26.9307 22.9798 26.9307C22.4546 26.9307 21.8057 27.3942 21.8057 28.1668C21.8057 28.4475 21.8326 28.7012 21.92 28.9215C22.0088 29.1033 22.1381 29.2736 22.3153 29.4174C22.51 29.5533 22.7746 29.6587 23.1335 29.7276C23.3746 29.774 23.6472 29.8015 23.9327 29.815C23.3816 29.4948 22.4481 29.3225 22.6438 28.2507C22.86 27.067 23.5663 27.2268 24.1144 27.1135Z" fill="url(#paint23_linear_108_439)"/>
<path d="M22.9563 26.9315C22.4357 26.945 21.8057 27.406 21.8057 28.1671C21.8057 28.8749 21.9749 29.4143 22.8705 29.666C21.4717 28.767 21.9205 27.2502 22.9563 26.9315Z" fill="url(#paint24_linear_108_439)"/>
<path d="M28.9711 19.302C28.9731 19.1242 28.9531 18.9628 28.9157 18.8155C29.0549 19.4348 28.5033 20.0502 27.0412 20.3488C26.0722 20.5466 23.4989 20.7938 21.7183 20.0866C22.1026 20.5511 22.81 20.7369 23.7215 20.7719C25.1622 20.8268 25.8825 20.8543 26.4791 20.8767C27.0756 20.9002 28.9521 20.8887 28.9711 19.302Z" fill="url(#paint25_linear_108_439)"/>
<path d="M28.7397 25.6087C28.7377 24.9434 28.239 24.0779 27.1807 24.0474C26.0999 24.0164 25.5368 24.0329 24.9208 23.96C24.1805 23.8726 23.8326 23.8856 23.4622 23.8751C23.1821 23.8671 22.4912 23.9515 22.0215 24.2437C22.5496 24.427 23.4102 24.7027 24.6213 24.6252C27.5231 24.4385 28.3488 24.7896 28.7397 25.6087Z" fill="url(#paint26_linear_108_439)"/>
<path d="M22.8391 20.8768C22.2216 20.8643 21.2407 21.2279 21.2153 22.511C21.1898 23.7935 22.3115 24.0992 22.8057 24.1092C23.2999 24.1192 25.0276 24.2371 27.1587 24.2795C29.2897 24.322 29.5753 23.1777 29.5873 22.5784C29.5992 21.9786 29.2194 20.8943 27.9374 20.8683C24.2309 20.7939 22.8391 20.8768 22.8391 20.8768Z" fill="url(#paint27_linear_108_439)"/>
<path d="M23.1707 21.2488C22.6336 21.2383 21.782 21.517 21.7625 22.5064C21.7425 23.4963 22.7185 23.7341 23.1478 23.7426C23.5776 23.7511 25.0797 23.8455 26.9322 23.8824C28.7847 23.9194 29.0308 23.0373 29.0398 22.5744C29.0493 22.1119 28.9854 21.2748 27.8707 21.2523C24.6494 21.1884 23.1707 21.2488 23.1707 21.2488Z" fill="url(#paint28_linear_108_439)"/>
<path d="M22.5406 22.3871C22.6025 21.07 23.5215 21.066 24.5589 20.8388C23.3458 20.8463 22.8391 20.8762 22.8391 20.8762C22.2216 20.8638 21.2407 21.2274 21.2153 22.5104C21.1898 23.793 22.3115 24.0987 22.8057 24.1087C22.9839 24.1122 23.3229 24.1296 23.7821 24.1526C23.0972 23.8704 22.4952 23.356 22.5406 22.3871Z" fill="url(#paint29_linear_108_439)"/>
<path d="M28.5024 22.5235C28.5453 23.5723 27.3807 23.7696 26.271 23.8225C25.1613 23.8755 23.9278 23.3146 23.8923 22.5744C23.8569 21.8343 24.3656 21.2699 26.2485 21.1785C27.3582 21.125 28.4475 21.176 28.5024 22.5235Z" fill="url(#paint30_radial_108_439)"/>
<path d="M22.7238 20.8788C22.1068 20.9118 21.2392 21.3054 21.2153 22.5105C21.1908 23.7302 22.2032 24.0663 22.7278 24.1048C20.6976 23.2852 21.363 20.9997 22.7238 20.8788Z" fill="url(#paint31_linear_108_439)"/>
<path d="M29.5839 22.4485C29.3164 24.3464 24.3009 23.9988 21.5908 23.5913C21.9567 23.9833 22.5009 24.1022 22.8059 24.1087C23.3001 24.1187 25.0278 24.2365 27.1588 24.279C29.2899 24.3214 29.5754 23.1772 29.5874 22.5779C29.5879 22.5369 29.5869 22.4935 29.5839 22.4485Z" fill="url(#paint32_linear_108_439)"/>
<path d="M27.0715 26.6748C26.1001 26.7177 23.5297 27.0374 21.6558 26.033C21.8649 26.4216 22.2698 26.7517 22.9402 26.8691C24.4572 27.1348 26.9852 27.2741 27.9296 26.9205C28.3515 26.7627 28.7194 26.3207 28.7388 25.6509C28.6764 26.2333 28.1218 26.6283 27.0715 26.6748Z" fill="url(#paint33_linear_108_439)"/>
<path d="M27.3992 28.7839C26.7627 29.2684 25.6625 29.5546 24.0751 29.2864C23.0947 29.1206 22.4227 29.0641 21.981 29.0521C22.1577 29.3718 22.4986 29.6065 23.1336 29.7284C24.2613 29.9446 26.0684 29.7593 26.7478 29.5431C27.0967 29.4312 27.3004 29.1775 27.3992 28.7839Z" fill="url(#paint34_linear_108_439)"/>
<path d="M22.0137 27.472C23.1898 27.0435 23.7663 27.6793 25.0248 27.6793C26.3317 27.6793 26.9547 27.1514 27.419 27.6533C27.2732 27.1903 26.8559 27.0969 26.4081 27.0969C25.852 27.0969 25.1771 27.1983 24.7912 27.1783C23.7149 27.1219 23.5043 26.9311 22.9791 26.9311C22.6392 26.9311 22.2478 27.1254 22.0137 27.472Z" fill="url(#paint35_linear_108_439)"/>
<path d="M12.2138 28.2857C13.1199 28.1618 15.1796 27.9146 15.509 27.9146C12.5218 25.7785 13.8502 21.235 14.9519 18.937C15.1067 18.6144 15.202 18.3497 15.2534 18.1249C14.2595 18.8831 13.34 18.6643 12.131 18.5605C10.3199 18.4051 10.9374 28.46 12.2138 28.2857Z" fill="url(#paint36_linear_108_439)"/>
<path d="M14.0975 26.2213C13.7885 25.8093 14.0561 26.6953 14.3037 27.3341C14.5139 27.8775 12.902 27.5564 11.6685 27.6897C11.8297 28.0878 12.0139 28.313 12.2141 28.2856C13.1201 28.1617 15.1798 27.9145 15.5093 27.9145C15.0445 27.5194 14.406 26.6334 14.0975 26.2213Z" fill="url(#paint37_linear_108_439)"/>
<path d="M15.5087 27.9151C15.2526 27.6968 14.9436 27.3292 14.6656 26.9741C14.6656 26.9741 13.166 27.7417 11.5581 27.3806C11.7433 27.968 11.9659 28.3196 12.2135 28.2856C13.1201 28.1623 15.1793 27.9151 15.5087 27.9151Z" fill="url(#paint38_linear_108_439)"/>
<path d="M21.1893 12.8688C20.6022 12.9956 20.1265 12.1845 19.8579 11.2381C19.6383 10.4639 19.9368 9.47804 20.5134 9.36717C21.09 9.25579 21.6221 9.25079 21.9401 10.8915C22.1268 11.8579 21.7634 12.7449 21.1893 12.8688Z" fill="url(#paint39_radial_108_439)"/>
<path d="M22.9562 26.9317C22.6333 26.9656 22.3407 27.1389 22.1396 27.3772C21.9354 27.6174 21.84 27.931 21.861 28.2462C21.863 28.5633 21.9109 28.8875 22.0906 29.1442C22.2688 29.4034 22.5684 29.5578 22.8704 29.6661C22.5589 29.5957 22.2329 29.4668 22.0242 29.1937C21.8126 28.9234 21.7637 28.5713 21.7532 28.2482C21.7392 27.9176 21.8445 27.5659 22.0777 27.3222C22.3038 27.076 22.6303 26.9252 22.9562 26.9317Z" fill="#804B24"/>
<path d="M22.4378 24.0567C22.2251 24.1491 22.0289 24.2755 21.8667 24.4328C21.7015 24.5881 21.6136 24.8009 21.5532 25.0167L21.5537 25.0132C21.4758 25.4067 21.5417 25.8258 21.7729 26.1529C21.9985 26.4845 22.3649 26.7013 22.7543 26.8282C22.3534 26.7507 21.9496 26.5555 21.696 26.2073C21.5707 26.036 21.4838 25.8357 21.4419 25.6265C21.3995 25.4172 21.4189 25.1985 21.4579 24.9942L21.4589 24.9907C21.5223 24.7639 21.6351 24.5367 21.8213 24.3834C21.9995 24.225 22.2181 24.1276 22.4378 24.0567Z" fill="#804B24"/>
<path d="M22.7239 20.8784C22.342 20.9219 21.9726 21.0807 21.7095 21.3479C21.4454 21.6151 21.3027 21.9832 21.2797 22.3583C21.2413 22.7319 21.3017 23.1219 21.5153 23.4321C21.726 23.7433 22.0704 23.952 22.4388 24.0599C22.0614 23.991 21.686 23.8047 21.4474 23.4805C21.2038 23.1589 21.1394 22.7379 21.1719 22.3493C21.2038 21.9587 21.3571 21.5602 21.6516 21.289C21.9431 21.0148 22.339 20.8824 22.7239 20.8784Z" fill="#804B24"/>
<path d="M23.0627 17.4792C22.6544 17.5911 22.2485 17.7454 21.9266 18.0106C21.6021 18.2743 21.4264 18.6814 21.4533 19.0984C21.4478 19.5124 21.5831 19.935 21.8976 20.2092C22.2076 20.4869 22.6259 20.6217 23.0388 20.7096C22.6199 20.6602 22.1841 20.5553 21.8432 20.2716C21.4942 19.9919 21.346 19.5284 21.3455 19.0994C21.323 18.6634 21.5192 18.2069 21.8746 17.9462C22.2231 17.679 22.6459 17.5531 23.0627 17.4792Z" fill="#804B24"/>
<path d="M21.6562 26.0326C21.9373 26.5196 22.4774 26.7718 23.0111 26.8437C23.5542 26.9276 24.1013 26.985 24.6499 27.02C25.1975 27.0665 25.7471 27.0954 26.2968 27.0934C26.5713 27.0899 26.8464 27.0829 27.1194 27.056C27.3925 27.034 27.668 27.006 27.9306 26.9196C27.411 27.1149 26.8474 27.1459 26.2983 27.1653C25.7461 27.1793 25.1935 27.1638 24.6424 27.1279C24.0923 27.0804 23.5437 27.011 22.9996 26.9146C22.726 26.8697 22.4535 26.7848 22.2138 26.6389C21.9752 26.4916 21.7796 26.2793 21.6562 26.0326Z" fill="#804B24"/>
<path d="M21.5908 23.5913C21.8015 23.8011 22.0725 23.9394 22.3556 24.0098C22.6371 24.0942 22.9332 24.0758 23.2307 24.0892L25.0073 24.1407L26.7829 24.2281C27.372 24.264 27.9715 24.272 28.5361 24.0788C27.986 24.3135 27.368 24.3325 26.7814 24.3L25.0048 24.2486L23.2292 24.1607C22.9371 24.1407 22.6301 24.1547 22.3411 24.0603C22.0556 23.9709 21.7885 23.8135 21.5908 23.5913Z" fill="#804B24"/>
<path d="M27.9375 20.8679C27.5127 20.8689 27.0874 20.8809 26.6625 20.8769L25.3881 20.8794L24.1142 20.8969C23.6898 20.8994 23.2645 20.9019 22.8417 20.9189H22.8382C22.4204 20.9119 21.9876 21.0547 21.6866 21.3539C21.3796 21.6501 21.2348 22.0811 21.2153 22.5106C21.2188 22.2954 21.2418 22.0781 21.3077 21.8698C21.3746 21.6621 21.4889 21.4678 21.6441 21.3114C21.9536 20.9933 22.3999 20.8355 22.8402 20.8345H22.8367C23.6878 20.783 24.538 20.7825 25.3881 20.796C26.2387 20.8055 27.0884 20.8215 27.9375 20.8679Z" fill="#804B24"/>
<defs>
<linearGradient id="paint0_linear_108_439" x1="24.8841" y1="19.1719" x2="18.6879" y2="19.4206" gradientUnits="userSpaceOnUse">
<stop offset="0.00132565" stop-color="#FFCB4B"/>
<stop offset="1" stop-color="#FFD748"/>
</linearGradient>
<linearGradient id="paint1_linear_108_439" x1="18.1961" y1="27.764" x2="18.0715" y2="24.5056" gradientUnits="userSpaceOnUse">
<stop offset="0.00132565" stop-color="#FFCB4B"/>
<stop offset="1" stop-color="#FFD748"/>
</linearGradient>
<linearGradient id="paint2_linear_108_439" x1="17.402" y1="15.4978" x2="22.0697" y2="22.1715" gradientUnits="userSpaceOnUse">
<stop offset="0.00132565" stop-color="#FFCB4B"/>
<stop offset="1" stop-color="#FFD748"/>
</linearGradient>
<linearGradient id="paint3_linear_108_439" x1="14.0242" y1="12.8389" x2="25.9791" y2="13.7343" gradientUnits="userSpaceOnUse">
<stop offset="0.3118" stop-color="#FFBC47" stop-opacity="0"/>
<stop offset="1" stop-color="#FF8900"/>
</linearGradient>
<linearGradient id="paint4_linear_108_439" x1="13.7964" y1="23.4679" x2="29.4953" y2="23.4679" gradientUnits="userSpaceOnUse">
<stop stop-color="#FFBC47" stop-opacity="0"/>
<stop offset="1" stop-color="#FFA754"/>
</linearGradient>
<linearGradient id="paint5_linear_108_439" x1="11.2649" y1="23.4916" x2="42.2797" y2="24.4797" gradientUnits="userSpaceOnUse">
<stop stop-color="#FFBC47" stop-opacity="0"/>
<stop offset="1" stop-color="#C86F34"/>
</linearGradient>
<linearGradient id="paint6_linear_108_439" x1="16.1927" y1="27.5445" x2="21.3218" y2="24.7651" gradientUnits="userSpaceOnUse">
<stop stop-color="#FFBC47" stop-opacity="0"/>
<stop offset="1" stop-color="#C86F34"/>
</linearGradient>
<linearGradient id="paint7_linear_108_439" x1="22.0687" y1="23.5983" x2="26.3457" y2="23.0367" gradientUnits="userSpaceOnUse">
<stop stop-color="#643800" stop-opacity="0"/>
<stop offset="1" stop-color="#643800"/>
</linearGradient>
<linearGradient id="paint8_linear_108_439" x1="14.4778" y1="14.156" x2="15.4055" y2="29.5167" gradientUnits="userSpaceOnUse">
<stop stop-color="#FFBC47" stop-opacity="0"/>
<stop offset="1" stop-color="#FFA754"/>
</linearGradient>
<linearGradient id="paint9_linear_108_439" x1="28.6781" y1="19.089" x2="22.6089" y2="19.089" gradientUnits="userSpaceOnUse">
<stop offset="0.00132565" stop-color="#FFBC47"/>
<stop offset="1" stop-color="#FFD748"/>
</linearGradient>
<linearGradient id="paint10_linear_108_439" x1="28.6779" y1="25.5031" x2="22.6054" y2="25.5031" gradientUnits="userSpaceOnUse">
<stop offset="0.00132565" stop-color="#FFBC47"/>
<stop offset="1" stop-color="#FFD748"/>
</linearGradient>
<linearGradient id="paint11_linear_108_439" x1="28.6781" y1="28.3777" x2="22.6089" y2="28.3777" gradientUnits="userSpaceOnUse">
<stop offset="0.00132565" stop-color="#FFBC47"/>
<stop offset="1" stop-color="#FFD748"/>
</linearGradient>
<linearGradient id="paint12_linear_108_439" x1="21.7904" y1="19.1191" x2="24.9516" y2="19.0471" gradientUnits="userSpaceOnUse">
<stop offset="0.00132565" stop-color="#FFCB4B"/>
<stop offset="1" stop-color="#FFD748"/>
</linearGradient>
<linearGradient id="paint13_linear_108_439" x1="27.3188" y1="25.5461" x2="24.0964" y2="25.5461" gradientUnits="userSpaceOnUse">
<stop offset="0.00132565" stop-color="#FFCB4B"/>
<stop offset="1" stop-color="#FFD748"/>
</linearGradient>
<linearGradient id="paint14_linear_108_439" x1="27.3188" y1="28.3777" x2="24.0964" y2="28.3777" gradientUnits="userSpaceOnUse">
<stop offset="0.00132565" stop-color="#FFCB4B"/>
<stop offset="1" stop-color="#FFD748"/>
</linearGradient>
<linearGradient id="paint15_linear_108_439" x1="23.3854" y1="19.0449" x2="21.6661" y2="19.0449" gradientUnits="userSpaceOnUse">
<stop offset="0.00132565" stop-color="#FBA23B" stop-opacity="0"/>
<stop offset="1" stop-color="#FBA23B"/>
</linearGradient>
<linearGradient id="paint16_linear_108_439" x1="23.0765" y1="19.0945" x2="21.0992" y2="19.0945" gradientUnits="userSpaceOnUse">
<stop offset="0.00132565" stop-color="#FFBC47"/>
<stop offset="1" stop-color="#E89043"/>
</linearGradient>
<radialGradient id="paint17_radial_108_439" cx="0" cy="0" r="1" gradientUnits="userSpaceOnUse" gradientTransform="translate(18.2896 26.4921) rotate(23.5251) scale(2.41377 1.12068)">
<stop stop-color="#FBE07A"/>
<stop offset="1" stop-color="#FFD748" stop-opacity="0"/>
</radialGradient>
<radialGradient id="paint18_radial_108_439" cx="0" cy="0" r="1" gradientUnits="userSpaceOnUse" gradientTransform="translate(25.5925 19.104) rotate(2.02718) scale(2.06527 1.3555)">
<stop stop-color="#FBE07A"/>
<stop offset="1" stop-color="#FFD748"/>
</radialGradient>
<radialGradient id="paint19_radial_108_439" cx="0" cy="0" r="1" gradientUnits="userSpaceOnUse" gradientTransform="translate(25.4927 25.7592) rotate(-0.0544055) scale(2.21796 1.19565)">
<stop stop-color="#FBE07A"/>
<stop offset="1" stop-color="#FFD748" stop-opacity="0"/>
</radialGradient>
<radialGradient id="paint20_radial_108_439" cx="0" cy="0" r="1" gradientUnits="userSpaceOnUse" gradientTransform="translate(24.7251 28.4474) rotate(-0.0539601) scale(2.03073 1.27098)">
<stop stop-color="#FBE07A"/>
<stop offset="1" stop-color="#FFD748" stop-opacity="0"/>
</radialGradient>
<linearGradient id="paint21_linear_108_439" x1="23.5912" y1="25.4688" x2="21.0993" y2="25.4688" gradientUnits="userSpaceOnUse">
<stop offset="0.00132565" stop-color="#FBA23B" stop-opacity="0"/>
<stop offset="1" stop-color="#FBA23B"/>
</linearGradient>
<linearGradient id="paint22_linear_108_439" x1="23.0613" y1="25.3817" x2="21.719" y2="25.3817" gradientUnits="userSpaceOnUse">
<stop offset="0.00132565" stop-color="#FFBC47"/>
<stop offset="1" stop-color="#FBA23B"/>
</linearGradient>
<linearGradient id="paint23_linear_108_439" x1="23.5018" y1="28.3941" x2="20.5876" y2="27.8589" gradientUnits="userSpaceOnUse">
<stop offset="0.00132565" stop-color="#FBA23B" stop-opacity="0"/>
<stop offset="1" stop-color="#FBA23B"/>
</linearGradient>
<linearGradient id="paint24_linear_108_439" x1="23.2004" y1="28.2987" x2="21.9686" y2="28.2987" gradientUnits="userSpaceOnUse">
<stop offset="0.00132565" stop-color="#FFBC47"/>
<stop offset="1" stop-color="#FBA23B"/>
</linearGradient>
<linearGradient id="paint25_linear_108_439" x1="25.1639" y1="18.7067" x2="25.9473" y2="22.4978" gradientUnits="userSpaceOnUse">
<stop stop-color="#FFBC47" stop-opacity="0"/>
<stop offset="1" stop-color="#C86F34"/>
</linearGradient>
<linearGradient id="paint26_linear_108_439" x1="25.7592" y1="26.1972" x2="24.9045" y2="23.1136" gradientUnits="userSpaceOnUse">
<stop stop-color="#FFBC47" stop-opacity="0"/>
<stop offset="1" stop-color="#C86F34"/>
</linearGradient>
<linearGradient id="paint27_linear_108_439" x1="28.6777" y1="22.5586" x2="22.6085" y2="22.5586" gradientUnits="userSpaceOnUse">
<stop offset="0.00132565" stop-color="#FFBC47"/>
<stop offset="1" stop-color="#FFD748"/>
</linearGradient>
<linearGradient id="paint28_linear_108_439" x1="22.3638" y1="22.3892" x2="27.0129" y2="22.559" gradientUnits="userSpaceOnUse">
<stop offset="0.00132565" stop-color="#FFCB4B"/>
<stop offset="0.7382" stop-color="#FFD748"/>
<stop offset="1" stop-color="#FFCB4B"/>
</linearGradient>
<linearGradient id="paint29_linear_108_439" x1="24.1779" y1="22.4959" x2="20.7045" y2="22.4959" gradientUnits="userSpaceOnUse">
<stop offset="0.00132565" stop-color="#FBA23B" stop-opacity="0"/>
<stop offset="1" stop-color="#FBA23B"/>
</linearGradient>
<radialGradient id="paint30_radial_108_439" cx="0" cy="0" r="1" gradientUnits="userSpaceOnUse" gradientTransform="translate(26.195 22.5028) rotate(-2.73606) scale(2.27105 1.49064)">
<stop stop-color="#FBE07A"/>
<stop offset="1" stop-color="#FFD748" stop-opacity="0"/>
</radialGradient>
<linearGradient id="paint31_linear_108_439" x1="22.5634" y1="22.4917" x2="21.4667" y2="22.4917" gradientUnits="userSpaceOnUse">
<stop offset="0.00132565" stop-color="#FFBC47"/>
<stop offset="1" stop-color="#FBA23B"/>
</linearGradient>
<linearGradient id="paint32_linear_108_439" x1="25.4518" y1="22.1573" x2="26.1114" y2="26.3502" gradientUnits="userSpaceOnUse">
<stop stop-color="#FFBC47" stop-opacity="0"/>
<stop offset="1" stop-color="#C86F34"/>
</linearGradient>
<linearGradient id="paint33_linear_108_439" x1="24.9947" y1="25.401" x2="26.6848" y2="29.068" gradientUnits="userSpaceOnUse">
<stop stop-color="#FFBC47" stop-opacity="0"/>
<stop offset="1" stop-color="#C86F34"/>
</linearGradient>
<linearGradient id="paint34_linear_108_439" x1="24.6583" y1="28.618" x2="24.9057" y2="30.936" gradientUnits="userSpaceOnUse">
<stop stop-color="#FFBC47" stop-opacity="0"/>
<stop offset="1" stop-color="#C86F34"/>
</linearGradient>
<linearGradient id="paint35_linear_108_439" x1="24.7164" y1="28.2664" x2="24.7164" y2="26.5897" gradientUnits="userSpaceOnUse">
<stop stop-color="#FFBC47" stop-opacity="0"/>
<stop offset="1" stop-color="#C86F34"/>
</linearGradient>
<linearGradient id="paint36_linear_108_439" x1="13.3959" y1="23.6374" x2="8.14075" y2="31.578" gradientUnits="userSpaceOnUse">
<stop stop-color="#C86F34" stop-opacity="0"/>
<stop offset="1" stop-color="#C86F34"/>
</linearGradient>
<linearGradient id="paint37_linear_108_439" x1="13.0492" y1="25.3936" x2="13.915" y2="29.2568" gradientUnits="userSpaceOnUse">
<stop stop-color="#FFBC47" stop-opacity="0"/>
<stop offset="1" stop-color="#C86F34"/>
</linearGradient>
<linearGradient id="paint38_linear_108_439" x1="13.5735" y1="26.1185" x2="13.4498" y2="30.8471" gradientUnits="userSpaceOnUse">
<stop stop-color="#FFBC47" stop-opacity="0"/>
<stop offset="1" stop-color="#C86F34"/>
</linearGradient>
<radialGradient id="paint39_radial_108_439" cx="0" cy="0" r="1" gradientUnits="userSpaceOnUse" gradientTransform="translate(20.9067 11.1075) rotate(79.0714) scale(2.1776 1.27744)">
<stop stop-color="#FBE07A"/>
<stop offset="1" stop-color="#FFD748" stop-opacity="0"/>
</radialGradient>
</defs>
</svg>
