<svg width="40" height="40" viewBox="0 0 40 40" fill="none" xmlns="http://www.w3.org/2000/svg">
<path d="M17.6494 1.73357C19.1309 1.00172 20.8687 1.00172 22.3503 1.73357L25.5984 3.33814C25.947 3.51031 26.3133 3.64366 26.691 3.7358L30.2106 4.59452C31.816 4.98619 33.1473 6.10327 33.8117 7.6162L35.2686 10.9333C35.4249 11.2892 35.6199 11.6268 35.8499 11.9402L37.9942 14.8604C38.9722 16.1923 39.2739 17.9038 38.8105 19.4899L37.7943 22.9673C37.6853 23.3404 37.6176 23.7244 37.5924 24.1123L37.3579 27.7276C37.251 29.3766 36.382 30.8816 35.0075 31.7987L31.9938 33.8094C31.6704 34.0252 31.3717 34.2758 31.1031 34.5568L28.5996 37.1755C27.4578 38.37 25.8247 38.9644 24.1822 38.7833L20.5811 38.3865C20.1948 38.3439 19.8049 38.3439 19.4185 38.3865L15.8174 38.7833C14.1749 38.9644 12.5418 38.37 11.4 37.1755L8.89648 34.5568C8.62786 34.2758 8.32918 34.0252 8.00582 33.8094L4.99213 31.7987C3.61757 30.8816 2.74863 29.3766 2.64168 27.7276L2.40719 24.1123C2.38203 23.7244 2.31432 23.3404 2.20529 22.9673L1.18914 19.4899C0.725667 17.9038 1.02745 16.1923 2.00544 14.8604L4.14968 11.9402C4.37975 11.6268 4.5747 11.2892 4.73102 10.9333L6.18787 7.6162C6.85235 6.10327 8.18364 4.98618 9.78897 4.59452L13.3086 3.7358C13.6863 3.64366 14.0527 3.51031 14.4012 3.33814L17.6494 1.73357Z" fill="#806DFD"/>
<g filter="url(#filter0_i_108_887)">
<path d="M7.14844 23.572C7.14844 22.0781 9.01578 20.0448 9.94945 19.2148C10.7658 18.4103 10.688 16.7871 10.9122 14.9528C11.1364 13.1185 13.5414 10.3467 14.7847 9.42951C16.0279 8.51235 18.9424 8.26776 21.327 8.94034C23.7117 9.61292 27.5841 13.9949 29.3369 15.4623C31.0897 16.9298 31.7622 19.3959 31.2935 24.104C30.8247 28.8121 27.8083 30.3407 25.6479 31.2782C23.4875 32.2157 19.0443 28.8732 16.191 28.058C13.3376 27.2427 11.8294 27.1612 9.94945 26.9981C8.06952 26.8351 7.14844 25.4393 7.14844 23.572Z" fill="url(#paint0_radial_108_887)"/>
</g>
<g opacity="0.5" filter="url(#filter1_f_108_887)">
<path d="M15.1141 13.4891C11.5182 16.3131 10.8925 21.5174 13.7165 25.1133C16.5405 28.7092 21.7448 29.3349 25.3407 26.5109C28.9365 23.6869 29.5623 18.4825 26.7383 14.8867C23.9143 11.2908 18.7099 10.6651 15.1141 13.4891Z" fill="url(#paint1_linear_108_887)"/>
</g>
<g opacity="0.5" filter="url(#filter2_f_108_887)">
<path d="M14.0889 20.7449C16.0426 23.2448 19.653 23.6875 22.1528 21.7337C24.6526 19.78 25.0953 16.1696 23.1416 13.6698C21.1878 11.1699 17.5775 10.7272 15.0776 12.681C12.5778 14.6347 12.1351 18.2451 14.0889 20.7449Z" fill="url(#paint2_linear_108_887)"/>
</g>
<path d="M20.2844 24.1882C20.1106 24.2065 19.9531 24.2998 19.8448 24.428C19.735 24.5573 19.6836 24.7261 19.6949 24.8958C19.696 25.0665 19.7218 25.2409 19.8185 25.3791C19.9144 25.5186 20.0756 25.6017 20.2382 25.66C20.0705 25.6221 19.8951 25.5527 19.7828 25.4057C19.6689 25.2603 19.6425 25.0708 19.6369 24.8968C19.6294 24.7189 19.6861 24.5296 19.8115 24.3984C19.9332 24.2659 20.109 24.1847 20.2844 24.1882Z" fill="#804B24"/>
<path d="M20.0059 22.6409C19.8915 22.6906 19.7859 22.7586 19.6986 22.8433C19.6096 22.9269 19.5623 23.0414 19.5298 23.1575L19.5301 23.1556C19.4882 23.3675 19.5236 23.593 19.648 23.7691C19.7695 23.9476 19.9667 24.0642 20.1763 24.1325C19.9605 24.0908 19.7432 23.9857 19.6067 23.7984C19.5392 23.7062 19.4925 23.5984 19.4699 23.4857C19.4471 23.3731 19.4575 23.2554 19.4785 23.1454L19.479 23.1435C19.5132 23.0215 19.5739 22.8992 19.6741 22.8167C19.77 22.7314 19.8877 22.679 20.0059 22.6409Z" fill="#804B24"/>
<path d="M20.1598 20.9302C19.9543 20.9536 19.7555 21.0391 19.6139 21.1829C19.4717 21.3267 19.3949 21.5248 19.3825 21.7267C19.3619 21.9278 19.3944 22.1377 19.5094 22.3047C19.6227 22.4721 19.8081 22.5845 20.0064 22.6426C19.8033 22.6055 19.6013 22.5052 19.4728 22.3307C19.3417 22.1576 19.307 21.931 19.3245 21.7219C19.3417 21.5117 19.4242 21.2972 19.5827 21.1512C19.7396 21.0036 19.9527 20.9324 20.1598 20.9302Z" fill="#804B24"/>
<path d="M20.3417 19.1006C20.1219 19.1609 19.9035 19.2439 19.7302 19.3867C19.5555 19.5286 19.461 19.7477 19.4755 19.9721C19.4725 20.195 19.5453 20.4224 19.7146 20.57C19.8815 20.7195 20.1066 20.792 20.3288 20.8394C20.1034 20.8127 19.8688 20.7563 19.6853 20.6036C19.4975 20.4531 19.4177 20.2036 19.4174 19.9727C19.4053 19.738 19.5109 19.4923 19.7022 19.352C19.8898 19.2082 20.1174 19.1404 20.3417 19.1006Z" fill="#804B24"/>
<path d="M19.585 23.7043C19.7362 23.9664 20.0269 24.1022 20.3142 24.1409C20.6065 24.1861 20.901 24.217 21.1962 24.2358C21.491 24.2608 21.7868 24.2764 22.0826 24.2753C22.2304 24.2734 22.3784 24.2697 22.5254 24.2551C22.6724 24.2433 22.8207 24.2283 22.962 24.1818C22.6823 24.2869 22.379 24.3035 22.0834 24.314C21.7863 24.3215 21.4888 24.3132 21.1922 24.2938C20.8961 24.2683 20.6008 24.2309 20.308 24.1791C20.1607 24.1549 20.014 24.1092 19.8851 24.0307C19.7566 23.9514 19.6513 23.8371 19.585 23.7043Z" fill="#804B24"/>
<path d="M19.5498 22.3904C19.6632 22.5033 19.8091 22.5777 19.9614 22.6156C20.113 22.6611 20.2723 22.6511 20.4324 22.6584L21.3887 22.6861L22.3443 22.7331C22.6614 22.7525 22.9841 22.7568 23.288 22.6527C22.9919 22.7791 22.6592 22.7893 22.3435 22.7718L21.3873 22.7441L20.4316 22.6968C20.2744 22.6861 20.1092 22.6936 19.9536 22.6428C19.7999 22.5947 19.6562 22.51 19.5498 22.3904Z" fill="#804B24"/>
<path d="M22.9657 20.9246C22.7371 20.9251 22.5081 20.9316 22.2795 20.9294L21.5936 20.9308L20.9079 20.9402C20.6795 20.9415 20.4506 20.9429 20.223 20.952H20.2211C19.9963 20.9482 19.7633 21.0251 19.6013 21.1861C19.4361 21.3455 19.3581 21.5775 19.3477 21.8087C19.3495 21.6929 19.3619 21.5759 19.3974 21.4638C19.4334 21.352 19.4949 21.2474 19.5785 21.1633C19.745 20.9921 19.9852 20.9071 20.2222 20.9066H20.2203C20.6784 20.8789 21.136 20.8786 21.5936 20.8859C22.0514 20.891 22.5087 20.8996 22.9657 20.9246Z" fill="#804B24"/>
<path d="M18.9125 26.6841C22.2127 26.6841 24.888 24.0088 24.888 20.7086C24.888 17.4085 22.2127 14.7331 18.9125 14.7331C15.6123 14.7331 12.937 17.4085 12.937 20.7086C12.937 24.0088 15.6123 26.6841 18.9125 26.6841Z" fill="url(#paint3_radial_108_887)"/>
<path opacity="0.5" d="M18.9125 26.6841C22.2127 26.6841 24.888 24.0088 24.888 20.7086C24.888 17.4085 22.2127 14.7331 18.9125 14.7331C15.6123 14.7331 12.937 17.4085 12.937 20.7086C12.937 24.0088 15.6123 26.6841 18.9125 26.6841Z" fill="url(#paint4_radial_108_887)"/>
<path d="M24.688 20.7086C24.688 23.8983 22.1022 26.4841 18.9125 26.4841C15.7228 26.4841 13.137 23.8983 13.137 20.7086C13.137 17.5189 15.7228 14.9331 18.9125 14.9331C22.1022 14.9331 24.688 17.5189 24.688 20.7086Z" stroke="url(#paint5_radial_108_887)" stroke-width="0.4"/>
<defs>
<filter id="filter0_i_108_887" x="7.14844" y="8.55739" width="24.29" height="22.8852" filterUnits="userSpaceOnUse" color-interpolation-filters="sRGB">
<feFlood flood-opacity="0" result="BackgroundImageFix"/>
<feBlend mode="normal" in="SourceGraphic" in2="BackgroundImageFix" result="shape"/>
<feColorMatrix in="SourceAlpha" type="matrix" values="0 0 0 0 0 0 0 0 0 0 0 0 0 0 0 0 0 0 127 0" result="hardAlpha"/>
<feOffset/>
<feGaussianBlur stdDeviation="1"/>
<feComposite in2="hardAlpha" operator="arithmetic" k2="-1" k3="1"/>
<feColorMatrix type="matrix" values="0 0 0 0 0.462687 0 0 0 0 0.462687 0 0 0 0 0.462687 0 0 0 0.25 0"/>
<feBlend mode="normal" in2="shape" result="effect1_innerShadow_108_887"/>
</filter>
<filter id="filter1_f_108_887" x="10.9482" y="10.7209" width="18.5581" height="18.5582" filterUnits="userSpaceOnUse" color-interpolation-filters="sRGB">
<feFlood flood-opacity="0" result="BackgroundImageFix"/>
<feBlend mode="normal" in="SourceGraphic" in2="BackgroundImageFix" result="shape"/>
<feGaussianBlur stdDeviation="0.5" result="effect1_foregroundBlur_108_887"/>
</filter>
<filter id="filter2_f_108_887" x="11.8701" y="10.4623" width="13.4902" height="13.4901" filterUnits="userSpaceOnUse" color-interpolation-filters="sRGB">
<feFlood flood-opacity="0" result="BackgroundImageFix"/>
<feBlend mode="normal" in="SourceGraphic" in2="BackgroundImageFix" result="shape"/>
<feGaussianBlur stdDeviation="0.5" result="effect1_foregroundBlur_108_887"/>
</filter>
<radialGradient id="paint0_radial_108_887" cx="0" cy="0" r="1" gradientUnits="userSpaceOnUse" gradientTransform="translate(19.2934 20) rotate(90) scale(26.8391 28.4866)">
<stop offset="0.196325" stop-color="white"/>
<stop offset="1" stop-color="#B1B1B1"/>
</radialGradient>
<linearGradient id="paint1_linear_108_887" x1="33.7721" y1="30.0219" x2="17.808" y2="21.7351" gradientUnits="userSpaceOnUse">
<stop stop-color="#141313"/>
<stop offset="1" stop-color="white" stop-opacity="0"/>
</linearGradient>
<linearGradient id="paint2_linear_108_887" x1="25.5917" y1="7.82477" x2="19.8153" y2="18.8891" gradientUnits="userSpaceOnUse">
<stop stop-color="#141313"/>
<stop offset="1" stop-color="white" stop-opacity="0"/>
</linearGradient>
<radialGradient id="paint3_radial_108_887" cx="0" cy="0" r="1" gradientUnits="userSpaceOnUse" gradientTransform="translate(17.7368 18.287) scale(7.20864)">
<stop stop-color="#FFDE43"/>
<stop offset="1" stop-color="#FFBB2E"/>
</radialGradient>
<radialGradient id="paint4_radial_108_887" cx="0" cy="0" r="1" gradientUnits="userSpaceOnUse" gradientTransform="translate(17.7368 18.287) scale(5.67136)">
<stop stop-color="#FFEA5F"/>
<stop offset="1" stop-color="#FFBC47" stop-opacity="0"/>
</radialGradient>
<radialGradient id="paint5_radial_108_887" cx="0" cy="0" r="1" gradientUnits="userSpaceOnUse" gradientTransform="translate(18.9125 20.7086) rotate(90) scale(5.97548 14.6317)">
<stop offset="0.119776" stop-color="#FFC968"/>
<stop offset="1" stop-color="#CF8B11"/>
</radialGradient>
</defs>
</svg>
